<svg xmlns="http://www.w3.org/2000/svg" xmlns:xlink="http://www.w3.org/1999/xlink" width="500" zoomAndPan="magnify" viewBox="0 0 375 374.999991" height="500" preserveAspectRatio="xMidYMid meet" version="1.2"><defs><clipPath id="f875c4bd7d"><path d="M 134 130 L 194 130 L 194 262.5 L 134 262.5 Z M 134 130 "/></clipPath><clipPath id="c33dfd0eb1"><path d="M 112.5 142 L 175 142 L 175 261 L 112.5 261 Z M 112.5 142 "/></clipPath><clipPath id="b9ef2693db"><path d="M 170.625 112.5 L 262.324219 112.5 L 262.324219 251 L 170.625 251 Z M 170.625 112.5 "/></clipPath><clipPath id="ee5cafd6b9"><path d="M 71 62 L 202 62 L 202 352.535156 L 71 352.535156 Z M 71 62 "/></clipPath><clipPath id="c209bb3d8f"><path d="M 22.535156 88 L 159 88 L 159 349 L 22.535156 349 Z M 22.535156 88 "/></clipPath><clipPath id="190ab15c04"><path d="M 150.28125 22.535156 L 351.820312 22.535156 L 351.820312 326 L 150.28125 326 Z M 150.28125 22.535156 "/></clipPath></defs><g id="522818edc9"><rect x="0" width="375" y="0" height="374.999991" style="fill:#ffffff;fill-opacity:1;stroke:none;"/><rect x="0" width="375" y="0" height="374.999991" style="fill:#000000;fill-opacity:1;stroke:none;"/><path style=" stroke:none;fill-rule:nonzero;fill:#040606;fill-opacity:1;" d="M 206.378906 255.429688 C 206.046875 255.761719 205.703125 255.761719 205.367188 255.761719 C 205.035156 255.761719 204.355469 255.429688 204.355469 255.082031 L 202.664062 252.058594 L 202.332031 252.058594 C 201.652344 252.058594 200.988281 251.714844 200.640625 251.378906 L 197.273438 244.640625 C 196.605469 244.640625 196.273438 244.640625 195.59375 244.640625 C 195.261719 244.640625 194.582031 244.308594 194.582031 243.628906 L 191.546875 236.890625 C 191.210938 237.226562 190.878906 237.226562 190.535156 237.226562 C 189.867188 237.226562 189.519531 236.890625 189.519531 236.210938 L 186.832031 229.472656 C 186.5 229.808594 186.152344 229.808594 185.488281 229.808594 C 184.808594 229.808594 184.472656 229.128906 184.472656 228.796875 L 182.105469 221.042969 C 181.769531 221.042969 181.4375 221.378906 181.105469 221.042969 C 180.757812 221.042969 180.09375 220.367188 180.09375 220.03125 L 177.390625 211.9375 C 177.058594 212.28125 176.710938 212.28125 176.042969 212.28125 C 175.367188 212.28125 175.03125 211.601562 175.03125 211.269531 L 172.328125 202.160156 C 171.996094 202.507812 171.316406 202.507812 170.652344 202.507812 C 170.304688 202.160156 169.972656 201.828125 169.640625 201.164062 L 168.628906 193.066406 L 167.28125 193.066406 C 166.9375 192.734375 166.601562 192.386719 166.601562 192.054688 L 165.257812 183.972656 L 164.910156 183.972656 C 164.578125 184.304688 163.914062 184.304688 163.234375 183.972656 C 162.886719 183.625 162.554688 183.292969 162.222656 182.613281 L 161.542969 174.863281 C 161.210938 175.195312 160.878906 175.195312 160.878906 175.195312 C 160.53125 175.195312 160.199219 175.195312 160.199219 174.863281 C 159.863281 174.53125 159.519531 174.183594 159.519531 173.515625 L 159.863281 165.421875 L 159.519531 165.421875 C 159.1875 165.753906 158.519531 165.421875 158.171875 165.421875 C 157.839844 165.085938 157.507812 164.753906 157.507812 164.074219 L 157.839844 155.644531 L 157.507812 155.992188 C 157.160156 156.324219 156.496094 155.992188 156.148438 155.992188 C 155.816406 155.644531 155.484375 155.3125 155.484375 154.632812 L 155.484375 145.207031 L 155.152344 145.207031 C 154.804688 145.539062 154.140625 145.207031 153.792969 144.859375 C 153.460938 144.527344 153.125 144.179688 153.125 143.515625 L 153.792969 137.773438 C 153.460938 137.773438 152.78125 137.773438 152.449219 137.441406 C 152.113281 137.109375 152.113281 136.429688 152.113281 136.097656 L 153.460938 130.703125 L 152.78125 130.703125 C 152.449219 130.703125 152.113281 130.371094 151.769531 130.023438 C 151.433594 129.691406 151.433594 129.011719 151.769531 128.679688 L 153.460938 124.296875 L 152.78125 123.964844 C 152.449219 123.964844 151.769531 123.285156 151.769531 122.953125 C 151.769531 122.605469 151.769531 121.941406 152.113281 121.59375 C 151.769531 121.941406 151.433594 121.941406 151.101562 122.273438 C 150.421875 126.65625 150.089844 132.050781 150.757812 138.453125 C 152.449219 152.277344 157.507812 172.839844 160.542969 181.269531 C 162.222656 185.980469 164.925781 192.71875 167.28125 198.792969 C 169.640625 204.519531 171.664062 209.246094 171.996094 210.925781 C 172.675781 213.960938 176.378906 220.699219 182.117188 229.472656 C 187.84375 238.570312 197.949219 252.058594 199.976562 254.082031 C 200.308594 254.417969 200.652344 254.75 200.988281 255.082031 C 202 256.09375 203.691406 257.785156 205.703125 259.464844 C 207.058594 259.128906 208.070312 258.796875 209.417969 258.453125 C 209.082031 258.453125 209.082031 258.117188 209.082031 258.117188 L 206.378906 255.429688 "/><path style=" stroke:none;fill-rule:nonzero;fill:#040606;fill-opacity:1;" d="M 196.9375 257.105469 C 194.25 254.75 184.128906 240.59375 178.402344 231.832031 C 174.355469 225.425781 168.960938 216.996094 167.949219 212.617188 C 167.617188 210.925781 165.589844 206.210938 163.234375 200.816406 C 160.878906 194.757812 157.839844 187.671875 156.496094 182.945312 C 153.460938 174.183594 148.398438 153.621094 146.722656 139.464844 C 146.042969 134.074219 146.375 129.011719 146.722656 124.976562 C 145.363281 125.644531 144.351562 126.65625 143.007812 127.667969 C 143.351562 128 143.351562 128.347656 143.007812 129.011719 L 141.328125 133.0625 L 141.660156 133.0625 C 141.992188 133.0625 142.328125 133.40625 142.671875 133.738281 C 143.007812 134.074219 143.007812 134.40625 143.007812 135.085938 L 141.660156 139.8125 C 141.992188 139.8125 142.328125 139.8125 142.671875 140.144531 C 143.007812 140.476562 143.339844 140.8125 143.007812 141.492188 L 142.328125 146.882812 C 142.671875 146.550781 143.351562 146.882812 143.683594 147.214844 C 144.019531 147.5625 144.351562 147.894531 144.351562 148.574219 L 144.351562 156.992188 L 145.03125 156.660156 C 145.363281 156.324219 146.042969 156.660156 146.375 156.660156 C 146.722656 156.992188 147.054688 157.335938 147.054688 158.003906 L 147.054688 166.765625 L 147.386719 166.765625 C 147.734375 166.433594 148.398438 166.765625 148.746094 166.765625 C 149.078125 167.113281 149.410156 167.445312 149.410156 168.125 L 149.078125 175.875 L 150.089844 175.875 C 150.421875 176.207031 150.757812 176.539062 151.101562 177.21875 L 151.769531 184.984375 C 152.113281 184.636719 152.78125 184.636719 153.113281 184.984375 L 154.125 185.980469 L 155.484375 194.410156 L 156.828125 194.410156 C 157.160156 194.757812 157.507812 195.089844 157.507812 195.421875 L 158.519531 203.171875 C 158.851562 202.839844 159.1875 202.839844 159.863281 203.171875 C 160.199219 203.171875 160.53125 203.851562 160.878906 204.1875 L 163.566406 212.960938 C 163.914062 212.617188 164.246094 212.617188 164.910156 212.617188 C 165.589844 212.617188 165.925781 213.292969 165.925781 213.628906 L 168.628906 222.390625 C 168.960938 222.390625 169.292969 222.058594 169.640625 222.390625 C 169.972656 222.390625 170.652344 223.070312 170.652344 223.402344 L 173.007812 230.820312 C 173.339844 230.820312 173.6875 230.472656 174.019531 230.820312 C 174.6875 230.820312 175.03125 231.152344 175.03125 231.832031 L 177.722656 238.570312 L 178.734375 238.570312 C 179.414062 238.570312 179.746094 238.914062 180.09375 239.582031 L 183.117188 246.667969 C 183.460938 246.320312 183.796875 246.320312 184.460938 246.320312 C 184.808594 246.320312 185.472656 246.667969 185.472656 247 L 188.175781 252.390625 L 188.84375 252.390625 C 189.519531 252.390625 190.199219 252.726562 190.535156 253.058594 L 192.890625 257.453125 C 193.238281 257.105469 193.570312 257.105469 193.902344 257.105469 C 194.234375 257.105469 194.582031 257.453125 194.914062 257.785156 L 196.257812 260.476562 L 196.605469 260.476562 C 197.273438 260.476562 197.617188 260.808594 197.949219 261.15625 L 198.285156 261.488281 C 198.964844 261.488281 199.976562 261.15625 200.640625 261.15625 C 199.296875 260.144531 198.285156 259.128906 197.617188 258.117188 C 197.617188 257.453125 197.273438 257.105469 196.9375 257.105469 "/><path style=" stroke:none;fill-rule:nonzero;fill:#040606;fill-opacity:1;" d="M 217.832031 255.429688 C 217.167969 255.761719 216.488281 255.429688 216.15625 254.75 L 214.464844 252.058594 C 214.128906 252.058594 213.796875 252.390625 213.796875 252.390625 C 213.117188 252.390625 212.785156 252.058594 212.453125 251.378906 L 211.09375 248.34375 C 210.761719 248.34375 210.429688 248.691406 210.082031 248.34375 C 209.75 248.34375 209.070312 248.011719 209.070312 247.664062 L 207.726562 244.640625 L 207.390625 244.640625 C 206.714844 244.640625 206.035156 244.308594 205.703125 243.628906 L 202.332031 237.890625 C 202 237.890625 201.652344 238.238281 200.988281 237.890625 C 200.652344 237.890625 199.976562 237.558594 199.976562 236.890625 L 197.273438 230.472656 L 196.605469 230.472656 C 195.925781 230.472656 195.59375 230.140625 195.261719 229.472656 L 192.890625 223.054688 C 192.558594 223.054688 192.226562 223.402344 191.878906 223.054688 C 191.210938 223.054688 190.878906 222.390625 190.878906 222.058594 L 188.855469 214.972656 L 187.84375 214.972656 C 187.164062 214.972656 186.832031 214.292969 186.832031 213.960938 L 184.472656 206.210938 C 184.128906 206.554688 183.796875 206.554688 183.460938 206.554688 C 182.78125 206.554688 182.449219 205.878906 182.449219 205.53125 L 180.09375 196.769531 C 179.746094 197.113281 179.082031 197.113281 178.734375 196.769531 C 178.070312 196.433594 177.734375 196.101562 177.734375 195.421875 L 176.710938 187.671875 L 175.710938 187.671875 C 175.367188 187.339844 175.03125 186.992188 175.03125 186.660156 L 173.6875 179.242188 C 173.339844 179.578125 172.675781 179.578125 171.996094 179.242188 C 171.332031 178.910156 170.984375 178.5625 170.984375 177.898438 L 170.320312 170.8125 C 169.972656 171.160156 169.304688 171.160156 168.960938 170.8125 C 168.292969 170.480469 168.292969 170.136719 168.292969 169.46875 L 168.628906 161.71875 C 168.292969 162.050781 167.617188 161.71875 166.9375 161.71875 C 166.601562 161.371094 166.269531 161.039062 166.269531 160.359375 L 166.601562 152.277344 L 166.269531 152.277344 C 165.9375 152.609375 165.257812 152.609375 164.925781 152.277344 C 164.578125 151.945312 164.246094 151.597656 164.246094 150.933594 L 164.246094 142.167969 C 163.914062 142.503906 163.234375 142.167969 162.902344 141.824219 C 162.566406 141.492188 162.222656 141.15625 162.222656 140.476562 L 162.902344 135.085938 C 162.566406 135.085938 161.890625 135.085938 161.890625 134.753906 C 161.554688 134.40625 161.210938 133.726562 161.554688 133.394531 L 162.902344 128.347656 L 162.566406 128.347656 C 162.222656 128.347656 161.890625 128 161.554688 127.667969 C 161.210938 127.335938 161.210938 126.65625 161.554688 126.324219 L 163.234375 122.273438 L 162.566406 121.941406 C 162.222656 121.941406 161.890625 121.59375 161.554688 120.929688 C 161.554688 120.582031 161.554688 119.917969 161.890625 119.570312 L 163.582031 117.214844 C 163.582031 117.214844 163.234375 117.214844 163.234375 116.882812 C 161.554688 117.546875 160.210938 118.226562 158.851562 118.574219 C 158.851562 118.574219 158.851562 118.90625 158.519531 118.90625 L 156.496094 121.59375 C 156.828125 121.59375 157.175781 121.941406 157.507812 122.273438 C 157.839844 122.605469 157.839844 122.953125 157.507812 123.621094 L 155.816406 127.667969 L 156.164062 127.667969 C 156.496094 127.667969 156.828125 128 157.175781 128.347656 C 157.507812 128.679688 157.507812 129.011719 157.507812 129.691406 L 156.164062 134.40625 C 156.496094 134.40625 156.828125 134.753906 157.175781 134.753906 C 157.507812 135.085938 157.839844 135.417969 157.507812 136.097656 L 156.828125 141.492188 C 157.175781 141.15625 157.839844 141.492188 158.1875 141.824219 C 158.519531 142.167969 158.851562 142.503906 158.851562 143.167969 L 158.851562 152.277344 L 159.53125 151.945312 C 159.863281 151.597656 160.542969 151.945312 160.878906 151.945312 C 160.53125 152.609375 160.53125 152.957031 160.53125 153.621094 L 160.199219 162.050781 L 160.53125 162.050781 C 160.878906 161.71875 161.542969 162.050781 161.890625 162.050781 C 162.222656 162.382812 162.554688 162.730469 162.554688 163.398438 L 162.554688 171.160156 L 163.566406 171.160156 C 163.898438 171.492188 164.246094 171.824219 164.578125 172.503906 L 165.257812 180.253906 C 165.589844 179.921875 166.257812 179.921875 166.601562 180.253906 C 166.9375 180.589844 167.28125 180.933594 167.617188 181.269531 L 168.960938 189.351562 C 169.292969 189.019531 169.972656 189.351562 170.304688 189.351562 C 170.652344 189.695312 170.984375 190.03125 170.984375 190.375 L 171.996094 198.113281 C 172.328125 197.78125 172.664062 197.78125 173.339844 198.113281 L 174.355469 199.125 L 177.390625 207.554688 C 177.722656 207.222656 178.054688 207.222656 178.734375 207.222656 C 179.414062 207.222656 179.746094 207.554688 179.746094 208.234375 L 182.449219 216.996094 L 183.460938 216.996094 C 184.128906 216.996094 184.460938 217.664062 184.460938 218.007812 L 186.832031 225.09375 C 187.164062 225.09375 187.496094 224.746094 187.84375 225.09375 C 188.175781 225.09375 188.84375 225.425781 188.84375 226.105469 L 191.546875 232.84375 L 192.558594 232.84375 C 193.238281 232.84375 193.570312 233.175781 193.902344 233.84375 L 196.9375 240.925781 C 197.273438 240.59375 197.617188 240.59375 198.285156 240.59375 C 198.628906 240.59375 198.964844 240.925781 199.296875 241.257812 L 202 246.667969 L 202.664062 246.667969 C 203.34375 246.667969 204.023438 247 204.355469 247.332031 L 206.714844 251.714844 C 207.046875 251.378906 207.390625 251.378906 207.726562 251.378906 C 208.058594 251.378906 208.738281 251.714844 208.738281 252.046875 L 210.082031 254.75 L 210.414062 254.75 C 211.09375 254.75 211.425781 255.082031 211.773438 255.429688 L 213.117188 257.441406 C 214.808594 256.773438 216.820312 256.09375 218.511719 255.082031 L 218.179688 255.082031 C 218.179688 255.429688 218.179688 255.429688 217.832031 255.429688 "/><g clip-rule="nonzero" clip-path="url(#f875c4bd7d)"><path style=" stroke:none;fill-rule:nonzero;fill:#040606;fill-opacity:1;" d="M 192.226562 261.15625 C 191.878906 261.15625 191.546875 260.808594 191.210938 260.476562 L 189.519531 257.453125 L 189.1875 257.453125 C 188.507812 257.453125 187.84375 257.105469 187.496094 256.773438 L 184.128906 250.035156 C 183.796875 250.367188 183.117188 250.367188 182.78125 250.367188 C 182.449219 250.367188 181.769531 250.035156 181.769531 249.355469 L 178.734375 242.617188 C 178.402344 242.617188 178.070312 242.964844 177.722656 242.964844 C 177.058594 242.964844 176.710938 242.617188 176.378906 241.9375 L 173.6875 235.199219 C 173.339844 235.546875 173.007812 235.546875 172.328125 235.546875 C 171.664062 235.546875 171.316406 234.867188 171.316406 234.519531 L 168.960938 227.117188 C 168.628906 227.117188 168.292969 227.449219 167.949219 227.117188 C 167.28125 227.117188 166.9375 226.4375 166.9375 226.105469 L 164.246094 217.675781 C 163.914062 218.023438 163.566406 218.023438 162.886719 218.023438 C 162.222656 218.023438 161.890625 217.34375 161.890625 217.011719 L 159.1875 207.902344 C 158.851562 208.246094 158.171875 208.246094 157.507812 208.246094 C 157.160156 207.902344 156.496094 207.566406 156.496094 206.890625 L 155.484375 198.804688 L 154.125 198.804688 C 153.792969 198.460938 153.460938 198.125 153.460938 197.792969 L 152.113281 189.695312 L 151.769531 189.695312 C 151.433594 190.03125 150.757812 190.03125 150.089844 189.695312 C 149.746094 189.363281 149.410156 189.03125 149.078125 188.351562 L 148.398438 180.601562 C 148.066406 180.933594 147.386719 180.933594 146.722656 180.601562 C 146.375 180.253906 146.042969 179.921875 146.042969 179.257812 L 146.375 170.828125 L 146.042969 171.160156 C 145.695312 171.492188 145.03125 171.160156 144.695312 171.160156 C 144.351562 170.828125 144.019531 170.480469 144.019531 169.816406 L 144.351562 161.039062 L 143.683594 160.707031 C 143.339844 161.039062 142.671875 160.707031 142.328125 160.707031 C 141.992188 160.359375 141.660156 160.027344 141.660156 159.347656 L 141.660156 149.921875 L 141.328125 149.921875 C 140.980469 150.253906 140.316406 149.921875 139.96875 149.585938 C 139.636719 149.242188 139.304688 148.90625 139.304688 148.230469 L 139.96875 142.503906 C 139.636719 142.503906 138.957031 142.503906 138.625 142.167969 C 138.292969 141.824219 137.945312 141.15625 138.292969 140.8125 L 139.636719 135.417969 L 138.957031 135.417969 C 138.625 135.417969 137.945312 135.085938 137.945312 134.753906 C 137.613281 134.40625 137.613281 133.738281 137.945312 133.394531 L 138.957031 130.703125 C 138.292969 131.371094 137.28125 132.050781 136.601562 132.726562 C 136.933594 133.0625 136.933594 133.394531 136.601562 134.074219 L 134.910156 138.453125 L 135.253906 138.453125 C 135.589844 138.453125 135.933594 138.789062 136.269531 139.132812 C 136.601562 139.464844 136.601562 139.800781 136.601562 140.476562 L 135.253906 145.191406 C 135.589844 145.191406 135.933594 145.191406 136.269531 145.539062 C 136.601562 145.871094 136.933594 146.550781 136.933594 146.882812 L 136.269531 152.277344 L 136.601562 152.277344 C 136.945312 151.945312 137.613281 152.277344 137.957031 152.277344 C 138.292969 152.609375 138.625 152.957031 138.625 153.621094 L 138.625 163.0625 L 139.304688 162.730469 C 139.636719 162.382812 140.316406 162.382812 140.980469 162.730469 C 141.328125 163.0625 141.660156 163.398438 141.660156 164.074219 L 141.328125 172.839844 L 141.660156 172.503906 C 141.992188 172.171875 142.671875 172.503906 143.007812 172.503906 C 143.351562 172.839844 143.683594 173.171875 143.683594 173.851562 L 143.683594 181.601562 C 144.019531 181.269531 144.351562 181.601562 145.03125 181.601562 C 145.363281 181.945312 145.695312 182.28125 146.042969 182.945312 L 146.722656 190.710938 C 147.054688 190.375 147.71875 190.375 148.066406 190.710938 L 149.078125 191.722656 L 150.421875 200.816406 C 150.757812 200.484375 151.433594 200.816406 151.769531 200.816406 C 152.113281 201.164062 152.449219 201.484375 152.449219 201.828125 L 153.460938 209.246094 C 153.792969 208.914062 154.125 208.914062 154.804688 209.246094 C 155.136719 209.246094 155.484375 209.925781 155.816406 210.257812 L 158.519531 218.6875 C 158.851562 218.339844 159.1875 218.339844 159.863281 218.339844 C 160.53125 218.339844 160.878906 218.6875 160.878906 219.355469 L 163.566406 227.78125 C 163.914062 227.78125 164.246094 227.449219 164.578125 227.78125 C 165.257812 227.78125 165.589844 228.449219 165.589844 228.796875 L 167.949219 235.535156 C 168.292969 235.535156 168.628906 235.199219 168.960938 235.535156 C 169.292969 235.535156 169.972656 235.867188 169.972656 236.546875 L 172.675781 242.949219 L 173.6875 242.949219 C 174.355469 242.949219 174.699219 243.285156 175.03125 243.964844 L 178.070312 250.703125 C 178.402344 250.367188 178.734375 250.367188 179.066406 250.367188 C 179.414062 250.367188 180.078125 250.703125 180.078125 251.035156 L 182.78125 256.09375 L 183.117188 256.09375 C 183.796875 256.09375 184.460938 256.425781 184.808594 256.773438 L 186.832031 260.808594 C 187.164062 260.476562 187.496094 260.476562 187.84375 260.476562 C 188.175781 260.476562 188.855469 260.808594 188.855469 261.15625 L 189.519531 262.5 C 190.867188 262.5 192.558594 262.5 193.902344 262.152344 L 193.570312 261.15625 C 192.890625 261.15625 192.558594 261.15625 192.226562 261.15625 "/></g><path style=" stroke:none;fill-rule:nonzero;fill:#040606;fill-opacity:1;" d="M 221.882812 251.378906 C 221.214844 251.378906 220.867188 251.035156 220.535156 250.714844 L 218.179688 247.664062 C 218.179688 248.011719 217.5 248.011719 217.167969 248.011719 C 216.835938 248.011719 216.15625 247.664062 216.15625 247 L 214.464844 244.308594 L 214.128906 244.308594 C 213.453125 244.308594 212.785156 243.964844 212.441406 243.628906 L 209.417969 237.226562 C 209.070312 237.558594 208.738281 237.558594 208.058594 237.558594 C 207.726562 237.558594 207.058594 237.226562 207.058594 236.546875 L 204.355469 230.140625 L 203.675781 230.140625 C 203.011719 230.140625 202.664062 229.808594 202.332031 229.128906 L 199.976562 222.722656 C 199.640625 223.054688 199.296875 223.054688 198.964844 222.722656 C 198.285156 222.722656 197.949219 222.058594 197.949219 221.710938 L 195.925781 214.640625 L 194.914062 214.640625 C 194.25 214.640625 193.902344 213.960938 193.902344 213.628906 L 191.546875 205.878906 C 191.210938 206.210938 190.878906 206.210938 190.535156 205.878906 C 189.867188 205.878906 189.519531 205.199219 189.519531 204.863281 L 187.164062 196.101562 C 186.832031 196.433594 186.152344 196.433594 185.820312 196.101562 C 185.488281 195.757812 185.140625 195.421875 184.808594 194.746094 L 183.796875 186.992188 L 182.78125 186.992188 L 181.769531 185.980469 L 180.425781 178.5625 C 180.09375 178.898438 179.414062 178.898438 178.75 178.5625 C 178.402344 178.230469 178.070312 177.898438 177.734375 177.21875 L 177.058594 170.136719 C 176.722656 170.480469 176.042969 170.480469 175.710938 170.136719 C 175.03125 169.800781 175.03125 169.46875 175.03125 168.789062 L 175.03125 161.039062 C 174.699219 161.371094 174.019531 161.039062 173.6875 161.039062 C 173.339844 160.707031 173.007812 160.359375 173.007812 159.695312 L 173.355469 151.597656 L 173.007812 151.597656 C 172.675781 151.945312 171.996094 151.945312 171.664062 151.597656 C 171.332031 151.265625 170.984375 150.933594 170.984375 150.253906 L 170.984375 141.492188 C 170.652344 141.824219 169.972656 141.492188 169.640625 141.144531 C 169.304688 140.8125 168.972656 140.132812 168.972656 139.800781 L 169.640625 134.40625 C 169.304688 134.40625 168.628906 134.40625 168.292969 134.074219 C 167.28125 134.074219 167.28125 133.738281 167.28125 133.0625 L 168.628906 128 L 168.292969 128 C 167.949219 128 167.617188 127.667969 167.28125 127.335938 C 166.9375 127 166.9375 126.324219 167.28125 125.988281 L 168.960938 121.941406 L 168.292969 121.941406 C 167.949219 121.941406 167.617188 121.261719 167.28125 120.929688 C 167.28125 120.582031 167.28125 119.917969 167.617188 119.585938 L 169.304688 117.214844 C 168.960938 117.214844 168.628906 116.546875 168.292969 116.214844 L 168.292969 115.535156 C 167.617188 115.867188 166.601562 115.867188 165.9375 116.214844 L 165.9375 116.546875 C 166.269531 116.882812 165.9375 117.558594 165.589844 117.894531 L 163.914062 119.917969 C 164.246094 119.917969 164.578125 120.25 164.925781 120.582031 C 165.257812 120.929688 165.257812 121.261719 164.925781 121.941406 L 163.566406 125.644531 L 163.914062 125.644531 C 164.246094 125.644531 164.578125 125.988281 164.925781 126.324219 C 165.257812 126.65625 165.257812 126.988281 165.257812 127.667969 L 163.914062 132.050781 C 164.246094 132.050781 164.578125 132.394531 164.578125 132.394531 C 164.925781 132.726562 165.257812 133.0625 165.257812 133.738281 L 164.910156 138.800781 C 165.257812 138.800781 165.925781 138.800781 166.269531 139.132812 C 166.601562 139.464844 166.9375 139.800781 166.9375 140.476562 L 166.9375 149.242188 L 167.28125 149.242188 C 167.617188 148.90625 168.292969 148.90625 168.628906 149.242188 C 168.960938 149.585938 169.292969 149.921875 169.292969 150.585938 L 168.960938 158.683594 C 169.292969 158.347656 169.972656 158.347656 170.304688 158.683594 C 170.652344 159.015625 170.984375 159.347656 170.984375 160.027344 L 170.984375 167.445312 L 171.996094 167.445312 C 172.328125 167.792969 172.664062 168.125 173.007812 168.789062 L 173.675781 175.875 C 174.019531 175.542969 174.6875 175.542969 175.03125 175.875 C 175.367188 176.207031 176.042969 176.539062 176.042969 176.886719 L 177.390625 184.636719 L 178.402344 184.636719 C 178.734375 184.984375 179.066406 185.316406 179.066406 185.648438 L 180.078125 192.71875 L 181.09375 192.71875 C 181.425781 192.71875 182.105469 193.398438 182.105469 193.746094 L 184.460938 201.828125 C 184.808594 201.828125 185.140625 201.484375 185.472656 201.828125 C 186.152344 201.828125 186.484375 202.507812 186.484375 202.839844 L 188.84375 210.925781 L 189.855469 210.925781 C 190.535156 210.925781 190.867188 211.601562 190.867188 211.9375 L 192.890625 218.6875 L 193.570312 218.6875 C 194.234375 218.6875 194.570312 219.019531 194.570312 219.699219 L 196.9375 226.105469 L 197.605469 226.105469 C 198.285156 226.105469 198.617188 226.4375 198.964844 227.105469 L 201.652344 233.84375 C 201.984375 233.507812 202.332031 233.507812 202.664062 233.84375 C 202.996094 233.84375 203.675781 234.1875 203.675781 234.519531 L 206.367188 239.582031 L 206.714844 239.582031 C 207.378906 239.582031 208.058594 239.914062 208.390625 240.59375 L 210.414062 244.640625 C 210.761719 244.640625 211.09375 244.296875 211.425781 244.640625 C 211.761719 244.640625 212.441406 244.976562 212.441406 245.308594 L 213.785156 248.011719 L 214.128906 248.011719 C 214.796875 248.011719 215.144531 248.34375 215.476562 248.675781 L 217.167969 251.035156 C 217.5 251.035156 217.832031 251.035156 218.164062 251.378906 L 220.535156 253.40625 C 221.203125 253.058594 221.546875 253.40625 221.882812 253.738281 C 222.214844 253.40625 222.894531 253.058594 223.226562 253.058594 L 222.214844 251.378906 C 222.558594 251.035156 222.226562 251.378906 221.882812 251.378906 "/><path style=" stroke:none;fill-rule:nonzero;fill:#040606;fill-opacity:1;" d="M 182.78125 260.808594 C 182.105469 260.808594 181.4375 260.476562 181.09375 260.144531 L 177.722656 254.082031 C 177.390625 254.417969 177.058594 254.417969 176.378906 254.417969 C 176.042969 254.417969 175.367188 254.082031 175.367188 253.40625 L 172.675781 247 C 172.328125 247 171.996094 247.332031 171.664062 247.332031 C 170.984375 247.332031 170.652344 247 170.304688 246.320312 L 167.617188 239.914062 C 167.28125 240.261719 166.9375 240.261719 166.269531 240.261719 C 165.589844 240.261719 165.257812 239.582031 165.257812 239.25 L 162.886719 232.164062 C 162.554688 232.164062 162.222656 232.496094 161.890625 232.164062 C 161.210938 232.164062 160.878906 231.5 160.878906 231.152344 L 158.519531 223.070312 C 158.171875 223.402344 157.839844 223.402344 157.160156 223.402344 C 156.496094 223.402344 156.148438 222.734375 156.148438 222.390625 L 153.460938 213.292969 C 153.113281 213.628906 152.449219 213.628906 151.769531 213.628906 C 151.433594 213.292969 150.757812 212.960938 150.757812 212.28125 L 149.746094 204.199219 L 148.398438 204.199219 C 148.066406 203.851562 147.71875 203.519531 147.71875 203.171875 L 146.375 195.421875 L 146.042969 195.757812 C 145.695312 196.101562 145.03125 196.101562 144.351562 195.757812 C 144.019531 195.421875 143.683594 195.089844 143.339844 194.410156 L 142.671875 186.660156 C 142.328125 186.992188 141.660156 186.992188 140.980469 186.660156 C 140.316406 186.328125 140.316406 185.980469 140.316406 185.316406 L 140.316406 176.886719 L 139.96875 177.21875 C 139.636719 177.550781 138.957031 177.550781 138.625 177.21875 C 138.292969 176.886719 137.945312 176.539062 137.945312 175.875 L 138.292969 167.113281 L 137.613281 167.113281 C 137.28125 167.445312 136.601562 167.113281 136.269531 167.113281 C 135.933594 166.765625 135.589844 166.433594 135.589844 165.753906 L 135.589844 155.980469 L 135.253906 156.324219 C 134.910156 156.660156 134.242188 156.324219 133.910156 155.980469 C 133.5625 155.644531 133.5625 155.644531 133.230469 155.3125 L 133.230469 155.980469 L 131.886719 159.347656 L 133.910156 162.730469 C 134.242188 163.0625 134.242188 163.398438 134.242188 164.074219 L 133.5625 166.101562 L 136.269531 171.492188 C 136.601562 172.160156 136.601562 172.503906 135.933594 173.171875 L 134.578125 174.863281 L 138.292969 180.933594 C 138.625 181.601562 138.625 182.28125 138.292969 182.613281 L 137.613281 183.625 L 141.328125 190.375 C 141.660156 190.710938 141.660156 191.375 141.328125 192.054688 L 140.648438 193.066406 L 145.710938 199.125 C 146.042969 199.804688 146.042969 200.484375 145.710938 201.164062 L 143.683594 202.839844 L 148.066406 208.234375 C 148.398438 208.914062 148.398438 209.578125 148.066406 210.257812 L 147.386719 210.925781 L 152.113281 216.332031 C 152.78125 216.996094 152.78125 217.664062 152.113281 218.339844 L 151.101562 219.699219 L 156.148438 224.746094 C 156.496094 225.09375 156.828125 225.757812 156.496094 226.105469 L 156.148438 228.796875 L 160.53125 232.84375 C 160.878906 233.175781 161.210938 233.523438 160.878906 234.1875 L 160.53125 237.558594 L 164.246094 240.925781 C 164.578125 241.257812 164.910156 241.605469 164.910156 242.285156 C 164.910156 242.617188 164.578125 242.949219 164.246094 243.285156 L 168.292969 247 C 168.628906 247.332031 168.960938 248.011719 168.628906 248.691406 L 168.292969 250.367188 L 173.339844 254.082031 C 174.019531 254.417969 174.019531 255.082031 174.019531 255.761719 L 174.019531 256.109375 L 176.378906 256.773438 C 177.058594 257.105469 177.722656 257.785156 177.390625 258.453125 L 177.390625 259.808594 L 182.105469 261.488281 L 184.128906 261.488281 L 183.460938 260.144531 C 183.117188 260.808594 183.117188 260.808594 182.78125 260.808594 "/><g clip-rule="nonzero" clip-path="url(#c33dfd0eb1)"><path style=" stroke:none;fill-rule:nonzero;fill:#040606;fill-opacity:1;" d="M 171.316406 258.117188 C 170.984375 258.117188 170.652344 257.785156 170.304688 257.453125 C 169.972656 257.105469 169.972656 256.773438 170.304688 256.09375 L 170.652344 255.429688 L 165.589844 251.714844 C 164.925781 251.378906 164.925781 250.714844 164.925781 250.035156 L 165.257812 248.34375 L 160.53125 243.964844 C 160.199219 243.628906 159.863281 243.285156 160.199219 242.617188 C 160.199219 242.285156 160.53125 241.9375 160.53125 241.605469 L 157.507812 238.914062 C 157.160156 238.570312 156.828125 238.238281 156.828125 237.558594 L 157.160156 234.1875 L 152.78125 230.140625 C 152.449219 229.808594 152.113281 229.128906 152.449219 228.796875 L 152.78125 226.105469 L 148.066406 221.042969 C 147.386719 220.367188 147.386719 219.699219 148.066406 219.019531 L 149.410156 217.675781 L 144.695312 212.28125 C 144.019531 211.601562 144.019531 210.925781 144.695312 210.257812 L 145.363281 209.578125 L 140.980469 204.1875 C 140.648438 203.519531 140.648438 202.839844 140.980469 202.160156 L 142.671875 200.152344 L 137.957031 194.078125 C 137.613281 193.398438 137.613281 192.71875 137.957031 192.054688 L 138.957031 190.710938 L 135.253906 183.972656 C 134.921875 183.292969 134.921875 182.613281 135.253906 182.28125 L 135.933594 181.269531 L 132.21875 175.542969 C 131.886719 174.863281 131.886719 174.183594 132.21875 173.851562 L 133.5625 172.171875 L 130.195312 166.765625 L 130.195312 165.753906 L 130.527344 163.742188 L 128.515625 160.359375 C 128.171875 160.027344 128.171875 159.363281 128.515625 159.015625 L 129.863281 155.644531 L 127.839844 153.289062 C 127.503906 152.957031 127.503906 152.277344 127.503906 151.945312 L 128.515625 148.574219 L 127.160156 145.539062 C 127.160156 145.207031 126.824219 144.859375 127.160156 144.527344 L 127.503906 142.503906 C 118.0625 155.3125 112.671875 170.480469 112.671875 187.339844 C 112.671875 224.066406 138.957031 254.417969 174.019531 260.808594 L 174.355469 259.128906 L 171.316406 258.117188 "/></g><g clip-rule="nonzero" clip-path="url(#b9ef2693db)"><path style=" stroke:none;fill-rule:nonzero;fill:#040606;fill-opacity:1;" d="M 187.496094 112.5 C 182.449219 112.5 177.722656 112.832031 173.007812 113.84375 L 172.328125 114.523438 C 172.675781 114.523438 172.675781 114.855469 173.007812 115.191406 C 173.339844 115.535156 173.007812 116.203125 172.675781 116.546875 L 170.984375 118.90625 C 171.316406 118.90625 171.664062 119.238281 171.996094 119.585938 C 172.328125 119.917969 172.328125 120.25 171.996094 120.929688 L 170.652344 125.3125 L 170.984375 125.3125 C 171.332031 125.3125 171.664062 125.644531 171.996094 125.988281 C 172.328125 126.324219 172.328125 126.65625 172.328125 127.335938 L 171.332031 131.714844 C 171.664062 131.714844 171.996094 132.050781 171.996094 132.050781 C 172.328125 132.394531 172.675781 132.726562 172.328125 133.40625 L 171.996094 138.453125 C 172.328125 138.453125 173.007812 138.453125 173.339844 138.800781 C 173.6875 139.132812 174.019531 139.464844 174.019531 140.144531 L 174.019531 148.90625 L 174.355469 148.574219 C 174.699219 148.230469 175.367188 148.574219 175.699219 148.574219 C 176.042969 148.90625 176.378906 149.242188 176.378906 149.921875 L 176.042969 158.003906 C 176.378906 157.671875 177.058594 158.003906 177.722656 158.003906 C 178.070312 158.347656 178.402344 158.683594 178.402344 159.363281 L 178.402344 166.765625 L 179.414062 166.765625 C 180.078125 167.113281 180.425781 167.445312 180.425781 168.125 L 181.09375 175.195312 C 181.4375 174.863281 182.105469 174.863281 182.449219 175.195312 C 182.78125 175.542969 183.460938 175.875 183.460938 176.207031 L 184.128906 183.957031 L 185.140625 183.957031 C 185.472656 184.304688 185.820312 184.636719 185.820312 184.96875 L 186.832031 192.054688 L 187.84375 192.054688 C 188.175781 192.054688 188.855469 192.71875 188.855469 193.066406 L 191.210938 201.148438 C 191.546875 200.816406 191.878906 200.816406 192.226562 201.148438 C 192.890625 201.148438 193.238281 201.828125 193.238281 202.160156 L 195.59375 210.257812 L 196.605469 210.257812 C 197.273438 210.257812 197.617188 210.925781 197.617188 211.257812 L 199.628906 218.007812 L 200.640625 218.007812 C 201.320312 218.007812 201.652344 218.339844 201.652344 219.019531 L 204.011719 225.425781 L 204.6875 225.425781 C 205.367188 225.425781 205.703125 225.757812 206.035156 226.425781 L 208.738281 233.175781 C 209.070312 232.84375 209.402344 232.84375 209.75 232.84375 C 210.082031 232.84375 210.761719 233.175781 210.761719 233.507812 L 213.453125 238.570312 L 213.796875 238.570312 C 214.464844 238.570312 215.144531 238.902344 215.476562 239.582031 L 217.5 243.617188 C 217.832031 243.617188 218.179688 243.285156 218.511719 243.617188 C 218.84375 243.617188 219.191406 243.964844 219.523438 244.296875 L 221.546875 246.652344 C 221.882812 246.652344 221.882812 246.320312 222.214844 246.320312 C 222.894531 246.320312 223.226562 246.652344 223.574219 246.984375 L 225.25 249.355469 C 225.582031 249.355469 225.929688 249.355469 226.261719 249.6875 L 226.941406 250.355469 C 248.183594 237.558594 262.335938 213.960938 262.335938 187.328125 C 262.335938 146.203125 228.964844 112.5 187.496094 112.5 "/></g><path style=" stroke:none;fill-rule:nonzero;fill:#040606;fill-opacity:1;" d="M 130.875 141.492188 L 130.195312 144.859375 L 131.554688 147.894531 C 131.886719 148.230469 131.886719 148.574219 131.554688 148.90625 L 130.542969 151.945312 L 132.550781 154.300781 C 132.550781 154.632812 132.898438 154.632812 132.898438 154.96875 L 132.898438 154.632812 L 133.5625 148.90625 C 133.230469 148.90625 132.550781 148.90625 132.21875 148.574219 C 131.886719 148.230469 131.554688 147.5625 131.886719 147.214844 L 133.230469 141.824219 L 132.550781 141.824219 C 132.21875 141.824219 131.886719 141.492188 131.554688 141.15625 C 131.207031 140.8125 131.207031 140.144531 131.554688 139.800781 L 132.21875 137.773438 C 131.554688 138.453125 130.875 139.464844 130.195312 140.144531 L 130.195312 139.800781 C 130.875 140.144531 131.207031 140.8125 130.875 141.492188 "/><path style=" stroke:none;fill-rule:nonzero;fill:#ffffff;fill-opacity:1;" d="M 228.863281 336.664062 C 228.132812 337.394531 227.371094 337.394531 226.640625 337.394531 C 225.910156 337.394531 224.417969 336.664062 224.417969 335.902344 L 220.699219 329.257812 L 219.96875 329.257812 C 218.476562 329.257812 217.011719 328.5 216.25 327.765625 L 208.847656 312.957031 C 207.382812 312.957031 206.652344 312.957031 205.160156 312.957031 C 204.425781 312.957031 202.933594 312.226562 202.933594 310.734375 L 196.261719 295.921875 C 195.527344 296.65625 194.796875 296.65625 194.035156 296.65625 C 192.574219 296.65625 191.8125 295.921875 191.8125 294.429688 L 185.898438 279.621094 C 185.167969 280.351562 184.40625 280.351562 182.945312 280.351562 C 181.453125 280.351562 180.71875 278.859375 180.71875 278.128906 L 175.511719 261.09375 C 174.777344 261.09375 174.046875 261.828125 173.316406 261.09375 C 172.554688 261.09375 171.089844 259.601562 171.089844 258.871094 L 165.148438 241.074219 C 164.417969 241.835938 163.65625 241.835938 162.191406 241.835938 C 160.699219 241.835938 159.96875 240.34375 159.96875 239.613281 L 154.027344 219.59375 C 153.296875 220.355469 151.804688 220.355469 150.339844 220.355469 C 149.578125 219.59375 148.847656 218.863281 148.117188 217.398438 L 145.890625 199.601562 L 142.933594 199.601562 C 142.175781 198.871094 141.441406 198.109375 141.441406 197.378906 L 138.488281 179.613281 L 137.726562 179.613281 C 136.992188 180.34375 135.53125 180.34375 134.039062 179.613281 C 133.277344 178.851562 132.546875 178.121094 131.8125 176.628906 L 130.320312 159.59375 C 129.589844 160.324219 128.855469 160.324219 128.855469 160.324219 C 128.097656 160.324219 127.363281 160.324219 127.363281 159.59375 C 126.632812 158.863281 125.871094 158.101562 125.871094 156.636719 L 126.632812 138.84375 L 125.871094 138.84375 C 125.140625 139.574219 123.675781 138.84375 122.914062 138.84375 C 122.183594 138.113281 121.453125 137.378906 121.453125 135.886719 L 122.183594 117.359375 L 121.453125 118.121094 C 120.691406 118.855469 119.226562 118.121094 118.46875 118.121094 C 117.734375 117.359375 117.003906 116.628906 117.003906 115.136719 L 117.003906 94.414062 L 116.273438 94.414062 C 115.511719 95.148438 114.046875 94.414062 113.285156 93.652344 C 112.554688 92.921875 111.824219 92.160156 111.824219 90.699219 L 113.285156 78.082031 C 112.554688 78.082031 111.0625 78.082031 110.332031 77.351562 C 109.597656 76.621094 109.597656 75.128906 109.597656 74.394531 L 112.554688 62.542969 L 111.0625 62.542969 C 110.332031 62.542969 109.597656 61.8125 108.839844 61.050781 C 108.105469 60.316406 108.105469 58.824219 108.839844 58.09375 L 112.554688 48.464844 L 111.0625 47.734375 C 110.332031 47.734375 108.839844 46.242188 108.839844 45.507812 C 108.839844 44.746094 108.839844 43.285156 109.597656 42.523438 C 108.839844 43.285156 108.105469 43.285156 107.375 44.015625 C 105.882812 53.644531 105.152344 65.5 106.613281 79.578125 C 110.332031 109.957031 121.453125 155.144531 128.125 173.671875 C 131.8125 184.03125 137.753906 198.84375 142.933594 212.1875 C 148.117188 224.773438 152.5625 235.164062 153.296875 238.851562 C 154.789062 245.523438 162.925781 260.332031 175.539062 279.621094 C 188.125 299.609375 210.339844 329.257812 214.789062 333.707031 C 215.519531 334.441406 216.28125 335.171875 217.011719 335.902344 C 219.234375 338.128906 222.953125 341.84375 227.371094 345.53125 C 230.359375 344.800781 232.582031 344.070312 235.539062 343.308594 C 234.804688 343.308594 234.804688 342.578125 234.804688 342.578125 L 228.863281 336.664062 "/><path style=" stroke:none;fill-rule:nonzero;fill:#ffffff;fill-opacity:1;" d="M 208.113281 340.351562 C 202.203125 335.171875 179.957031 304.058594 167.375 284.800781 C 158.476562 270.722656 146.621094 252.199219 144.398438 242.570312 C 143.667969 238.851562 139.21875 228.492188 134.039062 216.636719 C 128.855469 203.320312 122.183594 187.75 119.226562 177.359375 C 112.554688 158.101562 101.433594 112.914062 97.746094 81.800781 C 96.253906 69.945312 96.984375 58.824219 97.746094 49.957031 C 94.761719 51.421875 92.535156 53.644531 89.578125 55.871094 C 90.339844 56.601562 90.339844 57.363281 89.578125 58.824219 L 85.890625 67.722656 L 86.625 67.722656 C 87.355469 67.722656 88.085938 68.484375 88.847656 69.214844 C 89.578125 69.945312 89.578125 70.679688 89.578125 72.171875 L 86.625 82.5625 C 87.355469 82.5625 88.085938 82.5625 88.847656 83.292969 C 89.578125 84.023438 90.3125 84.757812 89.578125 86.25 L 88.085938 98.101562 C 88.847656 97.371094 90.339844 98.101562 91.074219 98.835938 C 91.804688 99.59375 92.535156 100.328125 92.535156 101.820312 L 92.535156 120.316406 L 94.027344 119.585938 C 94.761719 118.855469 96.253906 119.585938 96.984375 119.585938 C 97.746094 120.316406 98.476562 121.078125 98.476562 122.542969 L 98.476562 141.800781 L 99.210938 141.800781 C 99.96875 141.066406 101.433594 141.800781 102.195312 141.800781 C 102.925781 142.558594 103.65625 143.292969 103.65625 144.785156 L 102.925781 161.820312 L 105.152344 161.820312 C 105.882812 162.550781 106.613281 163.28125 107.375 164.773438 L 108.839844 181.835938 C 109.597656 181.078125 111.0625 181.078125 111.792969 181.835938 L 114.019531 184.03125 L 117.003906 202.558594 L 119.960938 202.558594 C 120.691406 203.320312 121.453125 204.050781 121.453125 204.785156 L 123.675781 221.816406 C 124.410156 221.085938 125.140625 221.085938 126.632812 221.816406 C 127.363281 221.816406 128.097656 223.308594 128.855469 224.042969 L 134.769531 243.328125 C 135.53125 242.570312 136.261719 242.570312 137.726562 242.570312 C 139.21875 242.570312 139.949219 244.0625 139.949219 244.792969 L 145.890625 264.050781 C 146.621094 264.050781 147.355469 263.320312 148.117188 264.050781 C 148.847656 264.050781 150.339844 265.542969 150.339844 266.273438 L 155.519531 282.578125 C 156.253906 282.578125 157.011719 281.816406 157.746094 282.578125 C 159.207031 282.578125 159.96875 283.308594 159.96875 284.800781 L 165.882812 299.609375 L 168.105469 299.609375 C 169.597656 299.609375 170.328125 300.371094 171.089844 301.835938 L 177.734375 317.40625 C 178.496094 316.644531 179.226562 316.644531 180.691406 316.644531 C 181.453125 316.644531 182.914062 317.40625 182.914062 318.136719 L 188.855469 329.992188 L 190.320312 329.992188 C 191.8125 329.992188 193.304688 330.722656 194.035156 331.453125 L 199.21875 341.113281 C 199.976562 340.351562 200.710938 340.351562 201.441406 340.351562 C 202.171875 340.351562 202.933594 341.113281 203.664062 341.84375 L 206.621094 347.757812 L 207.382812 347.757812 C 208.847656 347.757812 209.605469 348.488281 210.339844 349.25 L 211.070312 349.980469 C 212.5625 349.980469 214.789062 349.25 216.25 349.25 C 213.292969 347.023438 211.070312 344.800781 209.605469 342.578125 C 209.605469 341.113281 208.847656 340.351562 208.113281 340.351562 "/><path style=" stroke:none;fill-rule:nonzero;fill:#ffffff;fill-opacity:1;" d="M 254.035156 336.664062 C 252.570312 337.394531 251.078125 336.664062 250.347656 335.171875 L 246.628906 329.257812 C 245.898438 329.257812 245.167969 329.992188 245.167969 329.992188 C 243.675781 329.992188 242.941406 329.257812 242.210938 327.765625 L 239.226562 321.09375 C 238.496094 321.09375 237.761719 321.855469 237 321.09375 C 236.269531 321.09375 234.777344 320.363281 234.777344 319.601562 L 231.820312 312.957031 L 231.089844 312.957031 C 229.597656 312.957031 228.105469 312.226562 227.371094 310.734375 L 219.96875 298.117188 C 219.234375 298.117188 218.476562 298.878906 217.011719 298.117188 C 216.28125 298.117188 214.789062 297.386719 214.789062 295.921875 L 208.847656 281.816406 L 207.382812 281.816406 C 205.890625 281.816406 205.160156 281.085938 204.425781 279.621094 L 199.21875 265.515625 C 198.484375 265.515625 197.753906 266.273438 196.992188 265.515625 C 195.527344 265.515625 194.796875 264.050781 194.796875 263.320312 L 190.347656 247.75 L 188.125 247.75 C 186.632812 247.75 185.898438 246.257812 185.898438 245.523438 L 180.71875 228.492188 C 179.957031 229.25 179.226562 229.25 178.496094 229.25 C 177.003906 229.25 176.269531 227.757812 176.269531 226.996094 L 171.089844 207.738281 C 170.328125 208.5 168.867188 208.5 168.105469 207.738281 C 166.640625 207.007812 165.910156 206.277344 165.910156 204.785156 L 163.65625 187.75 L 161.460938 187.75 C 160.699219 187.019531 159.96875 186.257812 159.96875 185.527344 L 157.011719 169.222656 C 156.253906 169.957031 154.789062 169.957031 153.296875 169.222656 C 151.832031 168.492188 151.070312 167.730469 151.070312 166.265625 L 149.609375 150.695312 C 148.847656 151.457031 147.382812 151.457031 146.621094 150.695312 C 145.160156 149.964844 145.160156 149.203125 145.160156 147.742188 L 145.890625 130.707031 C 145.160156 131.4375 143.667969 130.707031 142.175781 130.707031 C 141.441406 129.945312 140.710938 129.214844 140.710938 127.722656 L 141.441406 109.957031 L 140.710938 109.957031 C 139.980469 110.6875 138.488281 110.6875 137.753906 109.957031 C 136.992188 109.222656 136.261719 108.464844 136.261719 107 L 136.261719 87.742188 C 135.53125 88.472656 134.039062 87.742188 133.304688 86.980469 C 132.574219 86.25 131.8125 85.519531 131.8125 84.023438 L 133.304688 72.171875 C 132.574219 72.171875 131.082031 72.171875 131.082031 71.441406 C 130.351562 70.679688 129.589844 69.1875 130.351562 68.453125 L 133.304688 57.363281 L 132.574219 57.363281 C 131.8125 57.363281 131.082031 56.601562 130.351562 55.871094 C 129.589844 55.136719 129.589844 53.644531 130.351562 52.914062 L 134.039062 44.015625 L 132.574219 43.285156 C 131.8125 43.285156 131.082031 42.523438 130.351562 41.058594 C 130.351562 40.300781 130.351562 38.835938 131.082031 38.074219 L 134.796875 32.894531 C 134.796875 32.894531 134.039062 32.894531 134.039062 32.164062 C 130.351562 33.625 127.394531 35.117188 124.410156 35.878906 C 124.410156 35.878906 124.410156 36.609375 123.675781 36.609375 L 119.226562 42.523438 C 119.960938 42.523438 120.722656 43.285156 121.453125 44.015625 C 122.183594 44.746094 122.183594 45.507812 121.453125 46.972656 L 117.734375 55.871094 L 118.496094 55.871094 C 119.226562 55.871094 119.960938 56.601562 120.722656 57.363281 C 121.453125 58.09375 121.453125 58.824219 121.453125 60.316406 L 118.496094 70.679688 C 119.226562 70.679688 119.960938 71.441406 120.722656 71.441406 C 121.453125 72.171875 122.183594 72.902344 121.453125 74.394531 L 119.960938 86.25 C 120.722656 85.519531 122.183594 86.25 122.945312 86.980469 C 123.675781 87.742188 124.410156 88.472656 124.410156 89.9375 L 124.410156 109.957031 L 125.902344 109.222656 C 126.632812 108.464844 128.125 109.222656 128.855469 109.222656 C 128.097656 110.6875 128.097656 111.449219 128.097656 112.914062 L 127.363281 131.4375 L 128.097656 131.4375 C 128.855469 130.707031 130.320312 131.4375 131.082031 131.4375 C 131.8125 132.171875 132.546875 132.929688 132.546875 134.394531 L 132.546875 151.457031 L 134.769531 151.457031 C 135.5 152.191406 136.261719 152.921875 136.992188 154.414062 L 138.488281 171.449219 C 139.21875 170.714844 140.679688 170.714844 141.441406 171.449219 C 142.175781 172.179688 142.933594 172.941406 143.667969 173.671875 L 146.621094 191.4375 C 147.355469 190.707031 148.847656 191.4375 149.578125 191.4375 C 150.339844 192.199219 151.070312 192.929688 151.070312 193.691406 L 153.296875 210.695312 C 154.027344 209.964844 154.757812 209.964844 156.253906 210.695312 L 158.476562 212.921875 L 165.148438 231.445312 C 165.882812 230.714844 166.613281 230.714844 168.105469 230.714844 C 169.597656 230.714844 170.328125 231.445312 170.328125 232.9375 L 176.269531 252.199219 L 178.496094 252.199219 C 179.957031 252.199219 180.691406 253.660156 180.691406 254.421875 L 185.898438 269.992188 C 186.632812 269.992188 187.363281 269.230469 188.125 269.992188 C 188.855469 269.992188 190.320312 270.722656 190.320312 272.214844 L 196.261719 287.027344 L 198.484375 287.027344 C 199.976562 287.027344 200.710938 287.757812 201.441406 289.222656 L 208.113281 304.792969 C 208.847656 304.058594 209.605469 304.058594 211.070312 304.058594 C 211.832031 304.058594 212.5625 304.792969 213.292969 305.523438 L 219.234375 317.40625 L 220.699219 317.40625 C 222.191406 317.40625 223.683594 318.136719 224.417969 318.871094 L 229.597656 328.5 C 230.328125 327.765625 231.089844 327.765625 231.820312 327.765625 C 232.554688 327.765625 234.046875 328.5 234.046875 329.230469 L 237 335.171875 L 237.734375 335.171875 C 239.226562 335.171875 239.957031 335.902344 240.71875 336.664062 L 243.675781 341.082031 C 247.390625 339.621094 251.8125 338.128906 255.527344 335.902344 L 254.796875 335.902344 C 254.796875 336.664062 254.796875 336.664062 254.035156 336.664062 "/><g clip-rule="nonzero" clip-path="url(#ee5cafd6b9)"><path style=" stroke:none;fill-rule:nonzero;fill:#ffffff;fill-opacity:1;" d="M 197.753906 349.25 C 196.992188 349.25 196.261719 348.488281 195.527344 347.757812 L 191.8125 341.113281 L 191.082031 341.113281 C 189.589844 341.113281 188.125 340.351562 187.363281 339.621094 L 179.957031 324.8125 C 179.226562 325.542969 177.734375 325.542969 177.003906 325.542969 C 176.269531 325.542969 174.777344 324.8125 174.777344 323.316406 L 168.105469 308.507812 C 167.375 308.507812 166.640625 309.269531 165.882812 309.269531 C 164.417969 309.269531 163.65625 308.507812 162.925781 307.015625 L 157.011719 292.207031 C 156.253906 292.96875 155.519531 292.96875 154.027344 292.96875 C 152.5625 292.96875 151.804688 291.476562 151.804688 290.714844 L 146.621094 274.441406 C 145.890625 274.441406 145.160156 275.171875 144.398438 274.441406 C 142.933594 274.441406 142.175781 272.949219 142.175781 272.214844 L 136.261719 253.691406 C 135.53125 254.449219 134.769531 254.449219 133.277344 254.449219 C 131.8125 254.449219 131.082031 252.957031 131.082031 252.226562 L 125.140625 232.207031 C 124.410156 232.96875 122.914062 232.96875 121.453125 232.96875 C 120.691406 232.207031 119.226562 231.476562 119.226562 229.984375 L 117.003906 212.21875 L 114.019531 212.21875 C 113.285156 211.457031 112.554688 210.726562 112.554688 209.992188 L 109.597656 192.199219 L 108.839844 192.199219 C 108.105469 192.929688 106.613281 192.929688 105.152344 192.199219 C 104.390625 191.46875 103.65625 190.734375 102.925781 189.242188 L 101.433594 172.207031 C 100.703125 172.941406 99.210938 172.941406 97.746094 172.207031 C 96.984375 171.449219 96.253906 170.714844 96.253906 169.253906 L 96.984375 150.726562 L 96.253906 151.457031 C 95.492188 152.191406 94.027344 151.457031 93.296875 151.457031 C 92.535156 150.726562 91.804688 149.964844 91.804688 148.5 L 92.535156 129.214844 L 91.074219 128.484375 C 90.3125 129.214844 88.847656 128.484375 88.085938 128.484375 C 87.355469 127.722656 86.625 126.988281 86.625 125.496094 L 86.625 104.777344 L 85.890625 104.777344 C 85.132812 105.507812 83.667969 104.777344 82.90625 104.042969 C 82.175781 103.28125 81.445312 102.550781 81.445312 101.058594 L 82.90625 88.472656 C 82.175781 88.472656 80.683594 88.472656 79.949219 87.742188 C 79.21875 86.980469 78.457031 85.519531 79.21875 84.757812 L 82.175781 72.902344 L 80.683594 72.902344 C 79.949219 72.902344 78.457031 72.171875 78.457031 71.441406 C 77.726562 70.679688 77.726562 69.214844 78.457031 68.453125 L 80.683594 62.542969 C 79.21875 64.007812 76.996094 65.5 75.503906 66.992188 C 76.234375 67.722656 76.234375 68.453125 75.503906 69.945312 L 71.785156 79.578125 L 72.546875 79.578125 C 73.277344 79.578125 74.039062 80.308594 74.769531 81.070312 C 75.503906 81.800781 75.503906 82.53125 75.503906 84.023438 L 72.546875 94.386719 C 73.277344 94.386719 74.039062 94.386719 74.769531 95.148438 C 75.503906 95.878906 76.234375 97.371094 76.234375 98.101562 L 74.769531 109.957031 L 75.503906 109.957031 C 76.261719 109.222656 77.726562 109.957031 78.488281 109.957031 C 79.21875 110.6875 79.949219 111.449219 79.949219 112.914062 L 79.949219 133.664062 L 81.445312 132.929688 C 82.175781 132.171875 83.667969 132.171875 85.132812 132.929688 C 85.890625 133.664062 86.625 134.394531 86.625 135.886719 L 85.890625 155.144531 L 86.625 154.414062 C 87.355469 153.683594 88.847656 154.414062 89.578125 154.414062 C 90.339844 155.144531 91.074219 155.878906 91.074219 157.371094 L 91.074219 174.402344 C 91.804688 173.671875 92.535156 174.402344 94.027344 174.402344 C 94.761719 175.164062 95.492188 175.894531 96.253906 177.359375 L 97.746094 194.421875 C 98.476562 193.691406 99.941406 193.691406 100.703125 194.421875 L 102.925781 196.648438 L 105.882812 216.636719 C 106.613281 215.90625 108.105469 216.636719 108.839844 216.636719 C 109.597656 217.398438 110.332031 218.101562 110.332031 218.863281 L 112.554688 235.164062 C 113.285156 234.433594 114.019531 234.433594 115.511719 235.164062 C 116.242188 235.164062 117.003906 236.65625 117.734375 237.386719 L 123.675781 255.914062 C 124.410156 255.152344 125.140625 255.152344 126.632812 255.152344 C 128.097656 255.152344 128.855469 255.914062 128.855469 257.378906 L 134.769531 275.90625 C 135.53125 275.90625 136.261719 275.171875 136.992188 275.90625 C 138.488281 275.90625 139.21875 277.367188 139.21875 278.128906 L 144.398438 292.9375 C 145.160156 292.9375 145.890625 292.207031 146.621094 292.9375 C 147.355469 292.9375 148.847656 293.667969 148.847656 295.164062 L 154.789062 309.242188 L 157.011719 309.242188 C 158.476562 309.242188 159.238281 309.972656 159.96875 311.464844 L 166.640625 326.273438 C 167.375 325.542969 168.105469 325.542969 168.835938 325.542969 C 169.597656 325.542969 171.0625 326.273438 171.0625 327.003906 L 177.003906 338.128906 L 177.734375 338.128906 C 179.226562 338.128906 180.691406 338.859375 181.453125 339.621094 L 185.898438 348.488281 C 186.632812 347.757812 187.363281 347.757812 188.125 347.757812 C 188.855469 347.757812 190.347656 348.488281 190.347656 349.25 L 191.8125 352.207031 C 194.769531 352.207031 198.484375 352.207031 201.441406 351.445312 L 200.710938 349.25 C 199.21875 349.25 198.484375 349.25 197.753906 349.25 "/></g><path style=" stroke:none;fill-rule:nonzero;fill:#ffffff;fill-opacity:1;" d="M 262.933594 327.765625 C 261.46875 327.765625 260.707031 327.003906 259.976562 326.304688 L 254.796875 319.601562 C 254.796875 320.363281 253.304688 320.363281 252.570312 320.363281 C 251.839844 320.363281 250.347656 319.601562 250.347656 318.136719 L 246.628906 312.226562 L 245.898438 312.226562 C 244.40625 312.226562 242.941406 311.464844 242.183594 310.734375 L 235.539062 296.65625 C 234.777344 297.386719 234.046875 297.386719 232.554688 297.386719 C 231.820312 297.386719 230.359375 296.65625 230.359375 295.164062 L 224.417969 281.085938 L 222.925781 281.085938 C 221.460938 281.085938 220.699219 280.351562 219.96875 278.859375 L 214.789062 264.78125 C 214.054688 265.515625 213.292969 265.515625 212.5625 264.78125 C 211.070312 264.78125 210.339844 263.320312 210.339844 262.558594 L 205.890625 247.015625 L 203.664062 247.015625 C 202.203125 247.015625 201.441406 245.523438 201.441406 244.792969 L 196.261719 227.757812 C 195.527344 228.492188 194.796875 228.492188 194.035156 227.757812 C 192.574219 227.757812 191.8125 226.265625 191.8125 225.535156 L 186.632812 206.277344 C 185.898438 207.007812 184.40625 207.007812 183.675781 206.277344 C 182.945312 205.515625 182.183594 204.785156 181.453125 203.292969 L 179.226562 186.257812 L 177.003906 186.257812 L 174.777344 184.03125 L 171.824219 167.730469 C 171.089844 168.460938 169.597656 168.460938 168.132812 167.730469 C 167.375 167 166.640625 166.265625 165.910156 164.773438 L 164.417969 149.203125 C 163.6875 149.964844 162.191406 149.964844 161.460938 149.203125 C 159.96875 148.472656 159.96875 147.742188 159.96875 146.25 L 159.96875 129.214844 C 159.238281 129.945312 157.746094 129.214844 157.011719 129.214844 C 156.253906 128.484375 155.519531 127.722656 155.519531 126.257812 L 156.28125 108.464844 L 155.519531 108.464844 C 154.789062 109.222656 153.296875 109.222656 152.5625 108.464844 C 151.832031 107.730469 151.070312 107 151.070312 105.507812 L 151.070312 86.25 C 150.339844 86.980469 148.847656 86.25 148.117188 85.488281 C 147.382812 84.757812 146.652344 83.265625 146.652344 82.53125 L 148.117188 70.679688 C 147.382812 70.679688 145.890625 70.679688 145.160156 69.945312 C 142.933594 69.945312 142.933594 69.214844 142.933594 67.722656 L 145.890625 56.601562 L 145.160156 56.601562 C 144.398438 56.601562 143.667969 55.871094 142.933594 55.136719 C 142.175781 54.40625 142.175781 52.914062 142.933594 52.183594 L 146.621094 43.285156 L 145.160156 43.285156 C 144.398438 43.285156 143.667969 41.792969 142.933594 41.058594 C 142.933594 40.300781 142.933594 38.835938 143.667969 38.105469 L 147.382812 32.894531 C 146.621094 32.894531 145.890625 31.429688 145.160156 30.699219 L 145.160156 29.207031 C 143.667969 29.9375 141.441406 29.9375 139.980469 30.699219 L 139.980469 31.429688 C 140.710938 32.164062 139.980469 33.65625 139.21875 34.386719 L 135.53125 38.835938 C 136.261719 38.835938 136.992188 39.566406 137.753906 40.300781 C 138.488281 41.058594 138.488281 41.792969 137.753906 43.285156 L 134.769531 51.421875 L 135.53125 51.421875 C 136.261719 51.421875 136.992188 52.183594 137.753906 52.914062 C 138.488281 53.644531 138.488281 54.375 138.488281 55.871094 L 135.53125 65.5 C 136.261719 65.5 136.992188 66.257812 136.992188 66.257812 C 137.753906 66.992188 138.488281 67.722656 138.488281 69.214844 L 137.726562 80.335938 C 138.488281 80.335938 139.949219 80.335938 140.710938 81.070312 C 141.441406 81.800781 142.175781 82.53125 142.175781 84.023438 L 142.175781 103.28125 L 142.933594 103.28125 C 143.667969 102.550781 145.160156 102.550781 145.890625 103.28125 C 146.621094 104.042969 147.355469 104.777344 147.355469 106.238281 L 146.621094 124.035156 C 147.355469 123.300781 148.847656 123.300781 149.578125 124.035156 C 150.339844 124.765625 151.070312 125.496094 151.070312 126.988281 L 151.070312 143.292969 L 153.296875 143.292969 C 154.027344 144.054688 154.757812 144.785156 155.519531 146.25 L 156.984375 161.820312 C 157.746094 161.085938 159.207031 161.085938 159.96875 161.820312 C 160.699219 162.550781 162.191406 163.28125 162.191406 164.042969 L 165.148438 181.078125 L 167.375 181.078125 C 168.105469 181.835938 168.835938 182.570312 168.835938 183.300781 L 171.0625 198.84375 L 173.285156 198.84375 C 174.015625 198.84375 175.511719 200.335938 175.511719 201.097656 L 180.691406 218.863281 C 181.453125 218.863281 182.183594 218.101562 182.914062 218.863281 C 184.40625 218.863281 185.140625 220.355469 185.140625 221.085938 L 190.320312 238.851562 L 192.542969 238.851562 C 194.035156 238.851562 194.769531 240.34375 194.769531 241.074219 L 199.21875 255.914062 L 200.710938 255.914062 C 202.171875 255.914062 202.90625 256.644531 202.90625 258.140625 L 208.113281 272.214844 L 209.578125 272.214844 C 211.070312 272.214844 211.800781 272.949219 212.5625 274.410156 L 218.476562 289.222656 C 219.207031 288.488281 219.96875 288.488281 220.699219 289.222656 C 221.429688 289.222656 222.925781 289.980469 222.925781 290.714844 L 228.835938 301.835938 L 229.597656 301.835938 C 231.058594 301.835938 232.554688 302.566406 233.285156 304.058594 L 237.734375 312.957031 C 238.496094 312.957031 239.226562 312.195312 239.957031 312.957031 C 240.6875 312.957031 242.183594 313.6875 242.183594 314.421875 L 245.136719 320.363281 L 245.898438 320.363281 C 247.363281 320.363281 248.125 321.09375 248.855469 321.824219 L 252.570312 327.003906 C 253.304688 327.003906 254.035156 327.003906 254.765625 327.765625 L 259.976562 332.214844 C 261.441406 331.453125 262.203125 332.214844 262.933594 332.945312 C 263.664062 332.214844 265.15625 331.453125 265.890625 331.453125 L 263.664062 327.765625 C 264.425781 327.003906 263.695312 327.765625 262.933594 327.765625 "/><path style=" stroke:none;fill-rule:nonzero;fill:#ffffff;fill-opacity:1;" d="M 177.003906 348.488281 C 175.511719 348.488281 174.046875 347.757812 173.285156 347.023438 L 165.882812 333.707031 C 165.148438 334.441406 164.417969 334.441406 162.925781 334.441406 C 162.191406 334.441406 160.699219 333.707031 160.699219 332.214844 L 154.789062 318.136719 C 154.027344 318.136719 153.296875 318.871094 152.5625 318.871094 C 151.070312 318.871094 150.339844 318.136719 149.578125 316.644531 L 143.667969 302.566406 C 142.933594 303.328125 142.175781 303.328125 140.710938 303.328125 C 139.21875 303.328125 138.488281 301.835938 138.488281 301.105469 L 133.277344 285.535156 C 132.546875 285.535156 131.8125 286.265625 131.082031 285.535156 C 129.589844 285.535156 128.855469 284.070312 128.855469 283.308594 L 123.675781 265.542969 C 122.914062 266.273438 122.183594 266.273438 120.691406 266.273438 C 119.226562 266.273438 118.46875 264.8125 118.46875 264.050781 L 112.554688 244.0625 C 111.792969 244.792969 110.332031 244.792969 108.839844 244.792969 C 108.105469 244.0625 106.613281 243.328125 106.613281 241.835938 L 104.390625 224.070312 L 101.433594 224.070312 C 100.703125 223.308594 99.941406 222.578125 99.941406 221.816406 L 96.984375 204.785156 L 96.253906 205.515625 C 95.492188 206.277344 94.027344 206.277344 92.535156 205.515625 C 91.804688 204.785156 91.074219 204.050781 90.3125 202.558594 L 88.847656 185.527344 C 88.085938 186.257812 86.625 186.257812 85.132812 185.527344 C 83.667969 184.792969 83.667969 184.03125 83.667969 182.570312 L 83.667969 164.042969 L 82.90625 164.773438 C 82.175781 165.507812 80.683594 165.507812 79.949219 164.773438 C 79.21875 164.042969 78.457031 163.28125 78.457031 161.820312 L 79.21875 142.558594 L 77.726562 142.558594 C 76.996094 143.292969 75.503906 142.558594 74.769531 142.558594 C 74.039062 141.800781 73.277344 141.066406 73.277344 139.574219 L 73.277344 118.09375 L 72.546875 118.855469 C 71.785156 119.585938 70.320312 118.855469 69.589844 118.09375 C 68.828125 117.359375 68.828125 117.359375 68.097656 116.628906 L 68.097656 118.09375 L 65.140625 125.496094 L 69.589844 132.929688 C 70.320312 133.664062 70.320312 134.394531 70.320312 135.886719 L 68.828125 140.335938 L 74.769531 152.191406 C 75.503906 153.652344 75.503906 154.414062 74.039062 155.878906 L 71.054688 159.59375 L 79.21875 172.941406 C 79.949219 174.402344 79.949219 175.894531 79.21875 176.628906 L 77.726562 178.851562 L 85.890625 193.691406 C 86.625 194.421875 86.625 195.886719 85.890625 197.378906 L 84.398438 199.601562 L 95.519531 212.921875 C 96.253906 214.414062 96.253906 215.90625 95.519531 217.398438 L 91.074219 221.085938 L 100.703125 232.9375 C 101.433594 234.433594 101.433594 235.894531 100.703125 237.386719 L 99.210938 238.851562 L 109.597656 250.734375 C 111.0625 252.199219 111.0625 253.660156 109.597656 255.152344 L 107.375 258.140625 L 118.46875 269.230469 C 119.226562 269.992188 119.960938 271.457031 119.226562 272.214844 L 118.46875 278.128906 L 128.097656 287.027344 C 128.855469 287.757812 129.589844 288.519531 128.855469 289.980469 L 128.097656 297.386719 L 136.261719 304.792969 C 136.992188 305.523438 137.726562 306.285156 137.726562 307.777344 C 137.726562 308.507812 136.992188 309.242188 136.261719 309.972656 L 145.160156 318.136719 C 145.890625 318.871094 146.621094 320.363281 145.890625 321.855469 L 145.160156 325.542969 L 156.253906 333.707031 C 157.746094 334.441406 157.746094 335.902344 157.746094 337.394531 L 157.746094 338.15625 L 162.925781 339.621094 C 164.417969 340.351562 165.882812 341.84375 165.148438 343.308594 L 165.148438 346.292969 L 175.511719 349.980469 L 179.957031 349.980469 L 178.496094 347.023438 C 177.734375 348.488281 177.734375 348.488281 177.003906 348.488281 "/><g clip-rule="nonzero" clip-path="url(#c209bb3d8f)"><path style=" stroke:none;fill-rule:nonzero;fill:#ffffff;fill-opacity:1;" d="M 151.804688 342.578125 C 151.070312 342.578125 150.339844 341.84375 149.578125 341.113281 C 148.847656 340.351562 148.847656 339.621094 149.578125 338.128906 L 150.339844 336.664062 L 139.21875 328.5 C 137.753906 327.765625 137.753906 326.304688 137.753906 324.8125 L 138.488281 321.09375 L 128.097656 311.464844 C 127.363281 310.734375 126.632812 309.972656 127.363281 308.507812 C 127.363281 307.777344 128.097656 307.015625 128.097656 306.285156 L 121.453125 300.371094 C 120.691406 299.609375 119.960938 298.878906 119.960938 297.386719 L 120.691406 289.980469 L 111.0625 281.085938 C 110.332031 280.351562 109.597656 278.859375 110.332031 278.128906 L 111.0625 272.214844 L 100.703125 261.09375 C 99.210938 259.601562 99.210938 258.140625 100.703125 256.644531 L 103.65625 253.691406 L 93.296875 241.835938 C 91.804688 240.34375 91.804688 238.851562 93.296875 237.386719 L 94.761719 235.894531 L 85.132812 224.042969 C 84.398438 222.578125 84.398438 221.085938 85.132812 219.59375 L 88.847656 215.171875 L 78.488281 201.828125 C 77.726562 200.335938 77.726562 198.84375 78.488281 197.378906 L 80.683594 194.421875 L 72.546875 179.613281 C 71.816406 178.121094 71.816406 176.628906 72.546875 175.894531 L 74.039062 173.671875 L 65.875 161.085938 C 65.140625 159.59375 65.140625 158.101562 65.875 157.371094 L 68.828125 153.683594 L 61.425781 141.800781 L 61.425781 139.574219 L 62.15625 135.15625 L 57.738281 127.722656 C 56.976562 126.988281 56.976562 125.527344 57.738281 124.765625 L 60.691406 117.359375 L 56.242188 112.179688 C 55.511719 111.449219 55.511719 109.957031 55.511719 109.222656 L 57.738281 101.820312 L 54.75 95.148438 C 54.75 94.414062 54.019531 93.652344 54.75 92.921875 L 55.511719 88.472656 C 34.761719 116.628906 22.90625 149.964844 22.90625 187.019531 C 22.90625 267.738281 80.683594 334.441406 157.746094 348.488281 L 158.476562 344.800781 L 151.804688 342.578125 "/></g><g clip-rule="nonzero" clip-path="url(#190ab15c04)"><path style=" stroke:none;fill-rule:nonzero;fill:#ffffff;fill-opacity:1;" d="M 187.363281 22.535156 C 176.269531 22.535156 165.882812 23.265625 155.519531 25.488281 L 154.027344 26.980469 C 154.789062 26.980469 154.789062 27.714844 155.519531 28.445312 C 156.253906 29.207031 155.519531 30.671875 154.789062 31.429688 L 151.070312 36.609375 C 151.804688 36.609375 152.5625 37.34375 153.296875 38.105469 C 154.027344 38.835938 154.027344 39.566406 153.296875 41.058594 L 150.339844 50.6875 L 151.070312 50.6875 C 151.832031 50.6875 152.5625 51.421875 153.296875 52.183594 C 154.027344 52.914062 154.027344 53.644531 154.027344 55.136719 L 151.832031 64.765625 C 152.5625 64.765625 153.296875 65.5 153.296875 65.5 C 154.027344 66.257812 154.789062 66.992188 154.027344 68.484375 L 153.296875 79.578125 C 154.027344 79.578125 155.519531 79.578125 156.253906 80.335938 C 157.011719 81.070312 157.746094 81.800781 157.746094 83.292969 L 157.746094 102.550781 L 158.476562 101.820312 C 159.238281 101.058594 160.699219 101.820312 161.433594 101.820312 C 162.191406 102.550781 162.925781 103.28125 162.925781 104.777344 L 162.191406 122.542969 C 162.925781 121.808594 164.417969 122.542969 165.882812 122.542969 C 166.640625 123.300781 167.375 124.035156 167.375 125.527344 L 167.375 141.800781 L 169.597656 141.800781 C 171.0625 142.558594 171.824219 143.292969 171.824219 144.785156 L 173.285156 160.324219 C 174.046875 159.59375 175.511719 159.59375 176.269531 160.324219 C 177.003906 161.085938 178.496094 161.820312 178.496094 162.550781 L 179.957031 179.585938 L 182.183594 179.585938 C 182.914062 180.34375 183.675781 181.078125 183.675781 181.808594 L 185.898438 197.378906 L 188.125 197.378906 C 188.855469 197.378906 190.347656 198.84375 190.347656 199.601562 L 195.527344 217.367188 C 196.261719 216.636719 196.992188 216.636719 197.753906 217.367188 C 199.21875 217.367188 199.976562 218.863281 199.976562 219.59375 L 205.160156 237.386719 L 207.382812 237.386719 C 208.847656 237.386719 209.605469 238.851562 209.605469 239.582031 L 214.027344 254.421875 L 216.25 254.421875 C 217.742188 254.421875 218.476562 255.152344 218.476562 256.644531 L 223.65625 270.722656 L 225.148438 270.722656 C 226.640625 270.722656 227.371094 271.457031 228.105469 272.917969 L 234.046875 287.757812 C 234.777344 287.027344 235.507812 287.027344 236.269531 287.027344 C 237 287.027344 238.496094 287.757812 238.496094 288.488281 L 244.40625 299.609375 L 245.167969 299.609375 C 246.628906 299.609375 248.125 300.34375 248.855469 301.835938 L 253.304688 310.703125 C 254.035156 310.703125 254.796875 309.972656 255.527344 310.703125 C 256.261719 310.703125 257.019531 311.464844 257.753906 312.195312 L 262.203125 317.375 C 262.933594 317.375 262.933594 316.644531 263.664062 316.644531 C 265.15625 316.644531 265.890625 317.375 266.648438 318.109375 L 270.335938 323.316406 C 271.070312 323.316406 271.832031 323.316406 272.5625 324.050781 L 274.054688 325.511719 C 320.738281 297.386719 351.847656 245.523438 351.847656 186.988281 C 351.847656 96.609375 278.503906 22.535156 187.363281 22.535156 "/></g><path style=" stroke:none;fill-rule:nonzero;fill:#ffffff;fill-opacity:1;" d="M 62.917969 86.25 L 61.425781 93.652344 L 64.410156 100.328125 C 65.140625 101.058594 65.140625 101.820312 64.410156 102.550781 L 62.183594 109.222656 L 66.605469 114.40625 C 66.605469 115.136719 67.367188 115.136719 67.367188 115.867188 L 67.367188 115.136719 L 68.828125 102.550781 C 68.097656 102.550781 66.605469 102.550781 65.875 101.820312 C 65.140625 101.058594 64.410156 99.59375 65.140625 98.835938 L 68.097656 86.980469 L 66.605469 86.980469 C 65.875 86.980469 65.140625 86.25 64.410156 85.519531 C 63.648438 84.757812 63.648438 83.292969 64.410156 82.53125 L 65.875 78.082031 C 64.410156 79.578125 62.917969 81.800781 61.425781 83.292969 L 61.425781 82.53125 C 62.917969 83.292969 63.648438 84.757812 62.917969 86.25 "/><g style="fill:#000000;fill-opacity:1;"><g transform="translate(185.390617, 357.840387)"><path style="stroke:none" d="M 2.109375 0.078125 C 1.804688 0.078125 1.566406 -0.00390625 1.390625 -0.171875 C 1.222656 -0.335938 1.140625 -0.5625 1.140625 -0.84375 C 1.140625 -1.113281 1.222656 -1.332031 1.390625 -1.5 C 1.566406 -1.675781 1.804688 -1.765625 2.109375 -1.765625 C 2.410156 -1.765625 2.644531 -1.679688 2.8125 -1.515625 C 2.988281 -1.347656 3.078125 -1.128906 3.078125 -0.859375 C 3.078125 -0.578125 2.988281 -0.347656 2.8125 -0.171875 C 2.632812 -0.00390625 2.398438 0.078125 2.109375 0.078125 Z M 2.109375 0.078125 "/></g></g></g></svg>