<svg xmlns="http://www.w3.org/2000/svg" xmlns:xlink="http://www.w3.org/1999/xlink" width="500" zoomAndPan="magnify" viewBox="0 0 375 374.999991" height="500" preserveAspectRatio="xMidYMid meet" version="1.2"><defs><clipPath id="4f43d6b366"><path d="M 29.414062 58.066406 L 347 58.066406 L 347 320.566406 L 29.414062 320.566406 Z M 29.414062 58.066406 "/></clipPath></defs><g id="ed4a5c8024"><rect x="0" width="375" y="0" height="374.999991" style="fill:#ffffff;fill-opacity:1;stroke:none;"/><rect x="0" width="375" y="0" height="374.999991" style="fill:#000000;fill-opacity:1;stroke:none;"/><g clip-rule="nonzero" clip-path="url(#4f43d6b366)"><path style=" stroke:none;fill-rule:nonzero;fill:#ffffff;fill-opacity:1;" d="M 342.625 158.390625 C 335.449219 128.304688 316.167969 106.140625 312.074219 104.871094 C 310.546875 104.238281 304.003906 98.214844 298.355469 92.59375 L 299.105469 91.152344 C 300.113281 89.367188 299.625 86.109375 291.84375 80.664062 C 283.65625 74.957031 278.039062 74.179688 277.808594 74.148438 L 276.855469 74.035156 L 276.105469 74.640625 C 275.5 75.128906 274.347656 75.792969 273.683594 75.820312 C 272.992188 75.675781 270.976562 74.351562 269.421875 72.996094 L 269.332031 72.9375 L 269.246094 72.882812 C 268.382812 72.277344 247.917969 58.066406 216.679688 58.066406 C 215.351562 58.066406 214.027344 58.097656 212.730469 58.152344 L 211.722656 58.152344 C 161.714844 58.152344 124.882812 94.523438 114.910156 108.5625 C 105.777344 121.414062 95.71875 126.601562 93.066406 126.601562 C 86.695312 125.566406 77.53125 121.53125 69.460938 117.929688 C 60.585938 113.980469 52.917969 110.605469 48.308594 110.605469 C 46.722656 110.605469 45.453125 111.011719 44.53125 111.789062 C 43.0625 113.027344 41.390625 114.730469 41.332031 117.121094 C 41.246094 120.40625 44.042969 123.027344 49.605469 128.21875 L 51.21875 129.714844 C 61.046875 138.96875 91.453125 156.75 97.445312 160.207031 C 107.160156 165.828125 162.351562 201.941406 162.925781 202.285156 L 162.957031 202.285156 L 162.984375 202.316406 C 163.359375 202.515625 164.828125 203.4375 167.164062 204.851562 C 159.324219 206.121094 151.945312 207.097656 149.757812 207.15625 C 145.808594 207.273438 143.761719 209.40625 142.550781 211.191406 C 127.535156 202.230469 70.644531 184.15625 66.984375 183.292969 C 64.9375 182.804688 60.902344 182.3125 56.519531 182.3125 C 52.082031 182.3125 46.144531 182.832031 43.089844 185.253906 C 41.648438 186.40625 40.84375 187.90625 40.785156 189.605469 C 39.832031 190.414062 39.085938 191.335938 38.535156 192.402344 C 37.125 195.140625 29.515625 231.164062 29.773438 233.84375 C 30.003906 236.265625 47.328125 290.566406 48.480469 292.554688 C 49.285156 293.9375 50.726562 294.570312 51.59375 294.800781 C 52.746094 305.78125 66.578125 310.078125 74.042969 312.410156 L 74.679688 312.613281 C 81.882812 314.859375 110.359375 316.878906 119.148438 317.453125 C 120.1875 318.089844 121.109375 318.664062 121.886719 319.125 C 122.894531 319.992188 124.078125 320.421875 125.460938 320.421875 C 125.519531 320.421875 125.574219 320.421875 125.605469 320.421875 L 125.632812 320.566406 L 126.265625 320.394531 L 126.382812 320.367188 C 127.304688 320.25 128.226562 319.933594 129.035156 319.5 C 172.726562 304.976562 248.148438 279.957031 277.402344 270.332031 C 277.777344 270.648438 277.980469 270.824219 277.980469 270.851562 L 278.066406 270.910156 L 278.152344 270.964844 L 309.136719 293.359375 L 309.566406 293.675781 L 310.085938 293.761719 C 310.257812 293.792969 311.699219 294.023438 312.996094 294.023438 C 314.179688 294.023438 314.984375 293.851562 315.621094 293.417969 C 317.378906 292.234375 325.449219 277.480469 335.96875 252.867188 C 347.234375 226.0625 349.917969 189 342.625 158.390625 Z M 332.421875 151.675781 C 332.449219 152.628906 331.703125 153.40625 330.78125 153.433594 L 330.722656 153.433594 C 329.800781 153.433594 329.050781 152.714844 329.023438 151.792969 C 329.023438 151.417969 328.992188 151.042969 328.992188 150.667969 C 328.964844 149.71875 329.683594 148.9375 330.636719 148.910156 C 331.585938 148.910156 332.363281 149.601562 332.394531 150.554688 C 332.394531 150.898438 332.394531 151.273438 332.421875 151.675781 Z M 330.03125 169.285156 C 329.972656 169.285156 329.914062 169.285156 329.855469 169.285156 C 328.933594 169.171875 328.242188 168.363281 328.359375 167.414062 C 328.386719 167.039062 328.417969 166.664062 328.472656 166.289062 C 328.558594 165.367188 329.394531 164.644531 330.347656 164.761719 C 331.269531 164.847656 331.960938 165.683594 331.875 166.636719 C 331.847656 167.007812 331.816406 167.382812 331.757812 167.789062 C 331.644531 168.652344 330.894531 169.285156 330.03125 169.285156 Z M 330.867188 174.589844 L 330.691406 175.714844 C 330.550781 176.550781 329.828125 177.15625 329.019531 177.15625 C 328.933594 177.15625 328.847656 177.15625 328.761719 177.125 C 327.839844 176.980469 327.207031 176.117188 327.351562 175.195312 L 327.523438 174.070312 C 327.667969 173.148438 328.53125 172.515625 329.453125 172.628906 C 330.375 172.800781 331.011719 173.667969 330.867188 174.589844 Z M 330.636719 161.359375 L 330.578125 161.359375 C 329.625 161.304688 328.90625 160.523438 328.933594 159.601562 L 328.992188 158.480469 C 329.023438 157.527344 329.800781 156.808594 330.75 156.835938 C 331.703125 156.863281 332.421875 157.671875 332.394531 158.59375 L 332.335938 159.746094 C 332.277344 160.640625 331.527344 161.359375 330.636719 161.359375 Z M 331.730469 142.484375 C 331.789062 142.859375 331.816406 143.234375 331.875 143.636719 C 331.988281 144.558594 331.296875 145.394531 330.375 145.507812 C 330.320312 145.507812 330.261719 145.507812 330.175781 145.507812 C 329.308594 145.507812 328.589844 144.875 328.472656 143.980469 C 328.445312 143.605469 328.386719 143.234375 328.359375 142.886719 C 328.242188 141.964844 328.90625 141.101562 329.855469 140.984375 C 330.78125 140.871094 331.644531 141.53125 331.730469 142.484375 Z M 328.300781 133.175781 C 329.222656 132.972656 330.117188 133.546875 330.347656 134.472656 C 330.433594 134.84375 330.519531 135.21875 330.605469 135.59375 C 330.808594 136.515625 330.203125 137.410156 329.28125 137.613281 C 329.164062 137.640625 329.050781 137.640625 328.933594 137.640625 C 328.15625 137.640625 327.4375 137.09375 327.292969 136.285156 C 327.207031 135.910156 327.121094 135.566406 327.0625 135.21875 C 326.832031 134.296875 327.378906 133.40625 328.300781 133.175781 Z M 322.277344 198.28125 L 322.566406 197.183594 C 322.824219 196.261719 323.746094 195.742188 324.640625 195.972656 C 325.5625 196.234375 326.082031 197.15625 325.824219 198.050781 L 325.535156 199.171875 C 325.332031 199.921875 324.640625 200.414062 323.890625 200.414062 C 323.746094 200.414062 323.601562 200.382812 323.429688 200.355469 C 322.535156 200.097656 322.019531 199.171875 322.277344 198.28125 Z M 320.058594 205.832031 L 320.375 204.765625 C 320.632812 203.84375 321.585938 203.351562 322.507812 203.640625 C 323.402344 203.898438 323.921875 204.878906 323.632812 205.773438 L 323.285156 206.867188 C 323.054688 207.589844 322.394531 208.050781 321.671875 208.050781 C 321.5 208.050781 321.328125 208.023438 321.152344 207.964844 C 320.261719 207.675781 319.769531 206.726562 320.058594 205.832031 Z M 317.578125 213.355469 L 317.953125 212.289062 C 318.242188 211.394531 319.222656 210.902344 320.117188 211.222656 C 321.007812 211.507812 321.5 212.488281 321.183594 213.382812 L 320.808594 214.449219 C 320.578125 215.167969 319.914062 215.601562 319.195312 215.601562 C 319.019531 215.601562 318.820312 215.574219 318.644531 215.515625 C 317.753906 215.199219 317.292969 214.246094 317.578125 213.355469 Z M 314.957031 220.789062 L 315.332031 219.722656 C 315.648438 218.859375 316.628906 218.398438 317.523438 218.714844 C 318.414062 219.03125 318.847656 220.011719 318.53125 220.90625 L 318.128906 221.972656 C 317.867188 222.664062 317.203125 223.066406 316.511719 223.066406 C 316.3125 223.066406 316.109375 223.039062 315.9375 222.949219 C 315.070312 222.632812 314.640625 221.683594 314.957031 220.789062 Z M 280.457031 77.75 C 284.378906 79.625 288.125 87.261719 288.125 87.261719 L 275.15625 79.828125 C 275.15625 79.828125 276.539062 75.878906 280.457031 77.75 Z M 100.386719 132.855469 C 100.90625 132.050781 101.941406 131.847656 102.75 132.339844 C 102.75 132.339844 103.125 132.570312 103.757812 133.03125 C 104.535156 133.578125 104.710938 134.644531 104.160156 135.394531 C 103.816406 135.855469 103.296875 136.113281 102.777344 136.113281 C 102.433594 136.113281 102.085938 136 101.796875 135.796875 C 101.25 135.421875 100.933594 135.21875 100.933594 135.21875 C 100.125 134.671875 99.894531 133.636719 100.386719 132.855469 Z M 108.945312 155.914062 C 108.945312 155.914062 92.574219 145.308594 90.5 144.210938 C 79.175781 138.101562 63.839844 128.765625 54.15625 120.320312 C 53.839844 120.0625 53.523438 119.6875 53.636719 119.28125 C 53.8125 118.734375 54.617188 118.851562 55.167969 119.082031 C 61.910156 121.960938 80.414062 127.984375 86.726562 131.703125 C 86.726562 131.675781 110.300781 154.15625 108.945312 155.914062 Z M 110.15625 140.609375 C 109.808594 140.984375 109.347656 141.15625 108.917969 141.15625 C 108.484375 141.15625 108.082031 141.011719 107.765625 140.695312 C 107.476562 140.4375 107.214844 140.175781 106.957031 139.945312 C 106.265625 139.3125 106.207031 138.246094 106.84375 137.554688 C 107.476562 136.863281 108.542969 136.804688 109.234375 137.441406 C 109.492188 137.699219 109.808594 137.957031 110.097656 138.21875 C 110.761719 138.851562 110.789062 139.917969 110.15625 140.609375 Z M 115.515625 146.460938 C 115.199219 146.75 114.796875 146.894531 114.394531 146.894531 C 113.902344 146.894531 113.441406 146.691406 113.097656 146.316406 C 112.867188 146.027344 112.605469 145.738281 112.375 145.480469 C 111.742188 144.789062 111.800781 143.695312 112.519531 143.089844 C 113.210938 142.453125 114.304688 142.539062 114.910156 143.234375 C 115.171875 143.519531 115.429688 143.808594 115.660156 144.097656 C 116.324219 144.761719 116.238281 145.855469 115.515625 146.460938 Z M 120.1875 152.886719 C 119.898438 153.089844 119.550781 153.175781 119.234375 153.175781 C 118.6875 153.175781 118.167969 152.917969 117.824219 152.425781 C 117.621094 152.109375 117.390625 151.820312 117.1875 151.503906 C 116.640625 150.726562 116.84375 149.6875 117.621094 149.140625 C 118.398438 148.59375 119.464844 148.796875 119.984375 149.574219 C 120.1875 149.890625 120.417969 150.207031 120.648438 150.523438 C 121.164062 151.300781 120.964844 152.367188 120.1875 152.886719 Z M 123.269531 160.035156 C 122.636719 160.035156 122.03125 159.6875 121.742188 159.082031 C 121.570312 158.765625 121.394531 158.421875 121.222656 158.105469 C 120.792969 157.269531 121.109375 156.230469 121.945312 155.796875 C 122.78125 155.367188 123.816406 155.683594 124.25 156.519531 C 124.421875 156.863281 124.59375 157.210938 124.796875 157.554688 C 125.230469 158.390625 124.882812 159.429688 124.046875 159.832031 C 123.757812 159.976562 123.5 160.035156 123.269531 160.035156 Z M 126.816406 167.097656 C 126.640625 167.152344 126.441406 167.183594 126.265625 167.183594 C 125.574219 167.183594 124.914062 166.75 124.652344 166.03125 C 124.539062 165.742188 124.453125 165.453125 124.335938 165.164062 C 124.019531 164.273438 124.480469 163.292969 125.34375 162.976562 C 126.238281 162.65625 127.21875 163.117188 127.535156 163.984375 C 127.652344 164.273438 127.738281 164.589844 127.851562 164.90625 C 128.167969 165.800781 127.707031 166.777344 126.816406 167.097656 Z M 124.96875 130.78125 C 119.207031 126.777344 113.007812 122.855469 111.570312 123.546875 C 130.734375 97.953125 147.421875 85.964844 164.628906 76.425781 C 172.292969 72.160156 184.082031 68.125 192.640625 66.222656 C 203.566406 63.800781 237.601562 65.53125 237.601562 65.53125 C 234.574219 66.109375 231.175781 67.78125 227.570312 70.171875 C 227.398438 70.171875 227.253906 70.144531 227.082031 70.113281 C 225.84375 70 224.691406 69.914062 223.480469 69.855469 C 221.117188 69.738281 218.78125 69.710938 216.417969 69.683594 C 214.085938 69.683594 211.75 69.683594 209.414062 69.738281 L 205.898438 69.824219 C 204.746094 69.824219 203.566406 69.824219 202.296875 70.863281 C 203.304688 72.160156 204.457031 72.417969 205.582031 72.679688 L 208.984375 73.542969 C 211.230469 74.121094 213.535156 74.640625 215.785156 75.1875 L 219.820312 76.109375 C 218.003906 77.664062 216.128906 79.335938 214.257812 81.09375 C 212.929688 80.921875 211.433594 80.71875 209.992188 80.546875 C 208.003906 80.289062 206.015625 80.027344 203.996094 79.796875 C 201.980469 79.597656 199.960938 79.367188 197.914062 79.222656 L 194.832031 79.019531 C 193.824219 78.933594 192.785156 78.875 191.574219 79.828125 C 192.351562 81.152344 193.277344 81.46875 194.226562 81.816406 L 197.023438 82.9375 L 202.640625 85.1875 C 204.429688 85.878906 206.214844 86.570312 208.03125 87.203125 C 206.476562 88.761719 204.949219 90.347656 203.421875 91.960938 C 203.101562 91.875 202.785156 91.789062 202.46875 91.699219 C 201.230469 91.382812 200.019531 91.09375 198.808594 90.835938 C 196.417969 90.347656 193.996094 89.914062 191.605469 89.511719 L 184.457031 88.300781 C 183.273438 88.097656 182.09375 87.867188 180.910156 87.636719 C 179.730469 87.378906 178.605469 87.089844 177.050781 87.722656 C 177.394531 88.5 177.855469 88.992188 178.347656 89.425781 C 178.863281 89.828125 179.414062 90.058594 179.960938 90.347656 C 181.085938 90.894531 182.207031 91.414062 183.304688 91.929688 C 185.550781 92.96875 187.800781 93.890625 190.078125 94.8125 L 196.792969 97.492188 C 197.109375 97.636719 197.453125 97.753906 197.773438 97.867188 C 196.242188 99.511719 194.773438 101.097656 193.304688 102.652344 L 193.390625 102.164062 C 191.085938 101.875 188.492188 101.296875 185.898438 100.664062 L 177.941406 98.675781 C 175.261719 98.042969 172.523438 97.40625 169.757812 96.945312 C 168.375 96.6875 166.992188 96.484375 165.609375 96.3125 C 164.914062 96.253906 164.222656 96.109375 163.503906 96.140625 C 162.78125 96.226562 162.035156 96.339844 161.253906 96.832031 C 162.378906 98.242188 163.648438 98.648438 164.914062 99.078125 C 166.183594 99.570312 167.421875 100.058594 168.691406 100.578125 C 171.167969 101.644531 173.648438 102.738281 176.128906 103.863281 C 178.605469 104.988281 181.113281 106.140625 183.707031 107.207031 C 184.976562 107.695312 186.242188 108.214844 187.570312 108.675781 C 185.667969 110.664062 183.910156 112.421875 182.292969 113.949219 C 180.304688 113.316406 178.347656 112.738281 176.359375 112.191406 C 173.101562 111.328125 169.871094 110.578125 166.644531 109.828125 C 163.417969 109.109375 160.21875 108.359375 157.019531 107.582031 C 155.433594 107.207031 153.847656 106.773438 152.292969 106.3125 C 150.734375 105.824219 149.292969 105.304688 147.277344 105.535156 C 148.171875 107.351562 149.726562 108.214844 151.226562 108.964844 C 152.722656 109.742188 154.253906 110.464844 155.78125 111.183594 C 158.835938 112.597656 161.917969 113.863281 165.003906 115.101562 L 174.167969 118.792969 C 174.542969 118.9375 174.945312 119.109375 175.320312 119.253906 C 167.507812 122.164062 155.117188 118.9375 154.570312 118.851562 C 152.089844 118.503906 149.613281 118.101562 147.105469 117.667969 C 144.597656 117.234375 142.148438 116.773438 139.667969 116.226562 C 138.429688 115.96875 137.191406 115.679688 135.949219 115.363281 C 134.710938 115.015625 133.53125 114.671875 131.886719 115.21875 C 132.234375 116.027344 132.722656 116.542969 133.214844 117.003906 C 133.730469 117.4375 134.335938 117.695312 134.914062 118.015625 C 136.066406 118.621094 137.21875 119.226562 138.402344 119.800781 C 140.765625 120.953125 143.15625 121.960938 145.605469 122.941406 C 146.988281 123.492188 148.429688 124.007812 149.84375 124.5 C 148.777344 125.621094 147.679688 126.863281 146.558594 128.101562 C 145.691406 129.050781 144.769531 129.859375 143.761719 130.582031 C 143.097656 130.292969 142.4375 130.03125 141.800781 129.773438 C 140.707031 129.371094 139.640625 128.964844 138.574219 128.621094 L 132.203125 126.546875 C 130.070312 125.882812 127.996094 125.191406 125.890625 124.46875 C 124.855469 124.09375 123.847656 123.722656 122.835938 123.289062 C 121.828125 122.828125 120.90625 122.394531 119.320312 122.683594 C 119.40625 123.492188 119.726562 124.066406 120.070312 124.554688 C 120.445312 125.019531 120.90625 125.363281 121.367188 125.738281 C 122.261719 126.457031 123.183594 127.152344 124.132812 127.8125 C 126.007812 129.140625 127.96875 130.378906 129.898438 131.558594 C 131.050781 132.25 132.203125 132.914062 133.328125 133.578125 C 130.53125 133.546875 127.5625 132.597656 124.96875 130.78125 Z M 192.554688 292.324219 C 188.722656 290.191406 176.761719 283.53125 162.464844 275.519531 C 151.628906 269.4375 139.4375 262.609375 128.457031 256.355469 C 128.515625 256.238281 128.542969 256.125 128.601562 256.039062 C 129.378906 254.277344 130.359375 251.972656 131.628906 249.0625 C 132.289062 247.535156 133.011719 245.863281 133.816406 243.988281 L 134.078125 243.414062 L 134.136719 243.269531 L 134.222656 243.097656 L 217.226562 284.136719 C 209.039062 286.875 200.710938 289.640625 192.554688 292.324219 Z M 139.785156 216.179688 C 138.402344 219.234375 135.71875 225.371094 131.542969 234.996094 C 130.648438 237.074219 129.667969 239.320312 128.628906 241.742188 L 128.457031 242.144531 L 128.429688 242.230469 L 127.792969 243.703125 C 122.492188 241.078125 115.230469 238.023438 107.5625 235.027344 C 100.5 232.289062 93.066406 229.609375 86.4375 227.390625 C 82.863281 226.207031 79.546875 225.140625 76.636719 224.277344 C 74.273438 222.519531 72.027344 220.789062 69.921875 219.089844 C 66.609375 216.410156 63.582031 213.84375 60.902344 211.335938 C 60.355469 210.816406 59.804688 210.296875 59.289062 209.78125 C 62.226562 204.132812 66.03125 196.953125 69.777344 190.007812 C 82.660156 193.929688 121.859375 207.070312 136.441406 214.304688 C 137.738281 214.996094 138.890625 215.628906 139.785156 216.179688 Z M 124.453125 314.109375 C 108.800781 304.570312 93.726562 294.425781 80.875 284.800781 C 77.414062 282.207031 74.101562 279.640625 70.960938 277.132812 C 84.160156 270.734375 102.664062 265.261719 113.644531 262.664062 C 116.46875 262.003906 118.832031 261.511719 120.417969 261.28125 C 120.070312 262.609375 119.695312 264.625 119.4375 267.277344 C 118.976562 271.976562 118.917969 278.746094 120.273438 287.769531 C 120.992188 292.554688 121.683594 296.992188 122.320312 300.910156 C 123.242188 306.675781 123.988281 311.316406 124.453125 314.109375 Z M 56.550781 215.082031 C 58.855469 217.246094 61.363281 219.464844 64.070312 221.710938 C 63.207031 221.652344 62.199219 221.597656 61.132812 221.539062 C 60.152344 221.511719 59.058594 221.480469 57.933594 221.480469 C 56.925781 221.480469 55.914062 221.511719 54.964844 221.539062 C 54.445312 221.566406 53.925781 221.566406 53.4375 221.597656 C 53.636719 221.105469 53.957031 220.414062 54.417969 219.433594 C 54.90625 218.367188 55.597656 216.957031 56.550781 215.082031 Z M 37.296875 235.890625 C 37.5 233.988281 38.363281 232.433594 39.949219 231.164062 C 39.976562 231.164062 39.976562 231.136719 40.007812 231.105469 C 42.3125 229.292969 45.914062 228.082031 50.757812 227.503906 C 53.003906 236.871094 58.25 256.84375 61.535156 269.179688 C 44.90625 254.566406 36.546875 243.097656 37.296875 235.890625 Z M 96.496094 244.453125 C 100.5 246.902344 108.28125 251.453125 119.667969 257.9375 C 112.460938 259.207031 85.890625 265.863281 68.164062 274.855469 C 67.472656 274.28125 66.78125 273.734375 66.117188 273.15625 C 65.542969 270.9375 64.9375 268.660156 64.300781 266.355469 C 60.355469 251.398438 56.089844 235.113281 54.1875 227.273438 C 55.339844 227.214844 56.519531 227.1875 57.761719 227.1875 C 60.355469 227.1875 62.6875 227.332031 64.300781 227.445312 C 65.628906 227.5625 66.523438 227.675781 66.695312 227.675781 C 67.355469 227.734375 68.335938 227.9375 69.605469 228.253906 C 70.84375 228.542969 72.316406 228.972656 74.074219 229.464844 C 75.28125 230.359375 76.523438 231.222656 77.789062 232.117188 C 83.527344 236.179688 89.808594 240.328125 96.496094 244.453125 Z M 46.519531 189.71875 C 46.835938 189.460938 47.296875 189.230469 47.84375 189.027344 C 49.691406 188.367188 52.714844 187.960938 56.433594 187.960938 C 59.835938 187.960938 63.4375 188.28125 65.570312 188.796875 C 65.742188 188.828125 65.945312 188.882812 66.175781 188.941406 C 66.261719 188.972656 66.320312 188.972656 66.40625 189 C 65.398438 190.875 64.246094 193.007812 63.035156 195.28125 C 60.988281 199.085938 58.769531 203.296875 56.722656 207.214844 C 52.570312 202.863281 49.605469 198.914062 47.960938 195.457031 C 46.953125 193.378906 46.433594 191.507812 46.375 189.835938 C 46.375 189.808594 46.433594 189.777344 46.460938 189.75 C 46.460938 189.777344 46.492188 189.75 46.519531 189.71875 Z M 33.523438 229.925781 C 35.019531 221.136719 39.660156 199.519531 41.160156 194.792969 C 41.246094 194.503906 41.332031 194.273438 41.390625 194.128906 C 42.917969 199.375 46.980469 205.398438 53.4375 212.027344 C 53.636719 212.230469 53.78125 212.402344 53.984375 212.605469 C 50.871094 218.800781 49.976562 221.046875 49.746094 221.972656 C 43.984375 222.71875 39.546875 224.304688 36.519531 226.667969 C 36.488281 226.699219 36.460938 226.726562 36.402344 226.753906 C 35.222656 227.707031 34.269531 228.773438 33.523438 229.925781 Z M 51.417969 290.96875 C 51.390625 290.9375 51.363281 290.910156 51.332031 290.882812 C 51.101562 290.390625 50.296875 288.058594 49.140625 284.570312 C 47.527344 279.699219 45.195312 272.523438 42.773438 264.972656 C 41.648438 261.457031 40.523438 257.882812 39.402344 254.394531 C 41.1875 256.757812 43.320312 259.234375 45.742188 261.832031 C 48.652344 264.972656 52.023438 268.226562 55.828125 271.65625 C 58.019531 273.648438 60.355469 275.664062 62.859375 277.738281 C 56.75 281.457031 53.148438 285.117188 52.109375 288.632812 C 51.878906 289.46875 51.707031 290.277344 51.5625 291.113281 C 51.507812 291.082031 51.449219 291.027344 51.417969 290.96875 Z M 75.570312 309.355469 L 75.195312 309.242188 L 74.910156 309.152344 C 70.988281 307.945312 65.484375 306.214844 61.21875 303.359375 C 56.636719 300.304688 53.496094 295.984375 55.367188 289.585938 C 55.597656 288.835938 55.972656 288.058594 56.519531 287.277344 C 58.132812 284.972656 61.132812 282.496094 65.542969 279.957031 C 69 282.78125 72.546875 285.550781 76.117188 288.230469 C 89.578125 298.402344 103.210938 307.425781 112.144531 313.101562 C 112.402344 313.273438 112.664062 313.449219 112.921875 313.59375 C 110.445312 313.417969 107.417969 313.1875 104.160156 312.902344 C 93.265625 312.035156 79.921875 310.710938 75.570312 309.355469 Z M 124.453125 251.425781 C 124.105469 252.203125 123.816406 252.925781 123.5 253.585938 C 121.511719 252.464844 119.636719 251.367188 117.851562 250.359375 C 111.335938 246.640625 106.265625 243.703125 102.691406 241.570312 C 101.421875 240.820312 100.355469 240.15625 99.464844 239.609375 C 98.109375 238.773438 96.785156 237.9375 95.457031 237.074219 C 94.792969 236.667969 94.132812 236.238281 93.46875 235.832031 C 94.738281 236.292969 96.0625 236.757812 97.386719 237.246094 C 107.1875 240.847656 118.054688 245.171875 125.546875 248.917969 C 125.199219 249.726562 124.855469 250.503906 124.539062 251.253906 C 124.480469 251.3125 124.480469 251.367188 124.453125 251.425781 Z M 130.042969 313.101562 C 129.207031 308.03125 127.652344 298.433594 125.890625 286.875 C 125.429688 283.761719 125.144531 280.9375 124.96875 278.375 C 124.59375 272.4375 124.941406 267.910156 125.429688 264.886719 C 125.429688 264.855469 125.429688 264.855469 125.429688 264.828125 C 125.660156 263.414062 125.921875 262.347656 126.152344 261.597656 C 147.625 273.761719 173.792969 288.375 185.207031 294.742188 C 167.078125 300.765625 150.5625 306.242188 139.726562 309.84375 C 135.605469 311.230469 132.289062 312.351562 130.042969 313.101562 Z M 230.136719 279.871094 C 228.40625 280.449219 226.648438 281.023438 224.890625 281.601562 L 177.914062 258.371094 L 136.46875 237.878906 C 137.074219 236.496094 137.679688 235.085938 138.3125 233.644531 C 139.753906 230.359375 141.195312 227.015625 142.433594 224.191406 C 143.300781 222.171875 144.078125 220.445312 144.683594 219.117188 L 251.898438 272.667969 C 248.179688 273.90625 244.257812 275.203125 240.222656 276.527344 C 236.9375 277.625 233.566406 278.746094 230.136719 279.871094 Z M 259.535156 270.160156 L 147.335938 214.132812 C 147.941406 213.324219 148.601562 212.890625 149.84375 212.835938 C 150.734375 212.804688 163.128906 211.335938 174.570312 209.375 C 193.648438 220.761719 230.109375 242.175781 239.734375 244.738281 C 248.324219 247.015625 263.828125 259.121094 272.15625 265.980469 C 268.585938 267.160156 264.375 268.546875 259.535156 270.160156 Z M 312.363281 236.785156 C 309.597656 241.425781 301.351562 253.210938 299.046875 256.066406 C 298.847656 256.324219 298.671875 256.5 298.585938 256.613281 C 297.433594 257.765625 296.136719 258.34375 294.636719 258.34375 C 293.628906 258.34375 292.535156 258.082031 291.351562 257.566406 C 290.632812 257.246094 289.882812 256.816406 289.105469 256.324219 C 286.195312 254.453125 235.066406 222.75 197.167969 199.316406 C 195.523438 198.308594 193.910156 197.300781 192.351562 196.320312 C 172.324219 183.925781 157.046875 174.472656 156.617188 174.1875 C 156.066406 173.8125 143.847656 165.597656 141.742188 163.867188 C 139.640625 162.109375 137.015625 159.917969 140.273438 154.445312 C 142.898438 150.003906 150.964844 136.605469 151.832031 135.132812 C 152.03125 134.527344 152.722656 132.769531 154.65625 132.019531 C 156.988281 131.097656 160.101562 131.992188 163.9375 134.644531 C 171.027344 139.542969 303.457031 222.921875 308.53125 225.660156 C 310.75 226.871094 313.171875 228.339844 313.832031 230.761719 C 314.238281 232.460938 313.773438 234.449219 312.363281 236.785156 Z M 327.8125 190.324219 L 327.550781 191.449219 C 327.351562 192.226562 326.65625 192.746094 325.910156 192.746094 C 325.765625 192.746094 325.648438 192.746094 325.503906 192.6875 C 324.582031 192.457031 324.035156 191.535156 324.238281 190.644531 L 324.496094 189.546875 C 324.699219 188.625 325.621094 188.078125 326.542969 188.28125 C 327.464844 188.480469 328.042969 189.402344 327.8125 190.324219 Z M 327.636719 184.992188 C 327.523438 184.992188 327.40625 184.992188 327.292969 184.964844 C 326.371094 184.761719 325.765625 183.871094 325.964844 182.949219 L 326.195312 181.851562 C 326.371094 180.929688 327.261719 180.324219 328.1875 180.527344 C 329.109375 180.699219 329.714844 181.59375 329.511719 182.515625 L 329.28125 183.640625 C 329.136719 184.417969 328.417969 184.992188 327.636719 184.992188 Z M 164.597656 159.082031 C 164.597656 160.957031 163.070312 162.457031 161.226562 162.457031 C 159.382812 162.457031 157.855469 160.929688 157.855469 159.082031 C 157.855469 157.238281 159.382812 155.710938 161.226562 155.710938 C 163.070312 155.710938 164.597656 157.238281 164.597656 159.082031 Z M 307.378906 227.675781 C 303.714844 225.6875 172.839844 143.636719 162.582031 136.546875 C 160.132812 134.84375 158.027344 133.980469 156.5 133.980469 C 156.097656 133.980469 155.75 134.039062 155.433594 134.152344 C 154.253906 134.613281 153.789062 136.199219 153.789062 136.199219 C 153.789062 136.199219 144.941406 150.925781 142.175781 155.625 C 139.898438 159.457031 141.109375 160.46875 143.128906 162.140625 C 145.171875 163.839844 157.683594 172.226562 157.824219 172.339844 C 158.257812 172.601562 173.476562 181.996094 193.449219 194.390625 C 195.035156 195.371094 196.648438 196.378906 198.289062 197.386719 C 236.132812 220.789062 287.402344 252.519531 290.316406 254.421875 C 291.265625 255.058594 292.101562 255.460938 292.824219 255.71875 C 295.328125 256.640625 296.394531 255.574219 296.972656 255.027344 C 297.03125 254.972656 297.089844 254.914062 297.175781 254.828125 C 298.875 252.808594 307.433594 240.617188 310.433594 235.660156 C 311.5 233.875 311.875 232.492188 311.585938 231.394531 C 311.179688 229.953125 309.625 228.886719 307.378906 227.675781 Z M 161.199219 168.710938 C 155.894531 168.710938 151.570312 164.386719 151.570312 159.082031 C 151.570312 153.78125 155.894531 149.457031 161.199219 149.457031 C 166.5 149.457031 170.824219 153.78125 170.824219 159.082031 C 170.824219 164.414062 166.5 168.710938 161.199219 168.710938 Z M 280.3125 242.953125 C 275.011719 242.953125 270.6875 238.628906 270.6875 233.328125 C 270.6875 228.023438 275.011719 223.699219 280.3125 223.699219 C 285.617188 223.699219 289.941406 228.023438 289.941406 233.328125 C 289.941406 238.628906 285.617188 242.953125 280.3125 242.953125 Z M 283.6875 233.328125 C 283.6875 235.199219 282.160156 236.699219 280.3125 236.699219 C 278.46875 236.699219 276.941406 235.171875 276.941406 233.328125 C 276.941406 231.480469 278.46875 229.953125 280.3125 229.953125 C 282.160156 229.953125 283.6875 231.480469 283.6875 233.328125 Z M 283.6875 233.328125 "/></g><g style="fill:#000000;fill-opacity:1;"><g transform="translate(185.390617, 357.840387)"><path style="stroke:none" d="M 2.109375 0.078125 C 1.804688 0.078125 1.566406 -0.00390625 1.390625 -0.171875 C 1.222656 -0.335938 1.140625 -0.5625 1.140625 -0.84375 C 1.140625 -1.113281 1.222656 -1.332031 1.390625 -1.5 C 1.566406 -1.675781 1.804688 -1.765625 2.109375 -1.765625 C 2.410156 -1.765625 2.644531 -1.679688 2.8125 -1.515625 C 2.988281 -1.347656 3.078125 -1.128906 3.078125 -0.859375 C 3.078125 -0.578125 2.988281 -0.347656 2.8125 -0.171875 C 2.632812 -0.00390625 2.398438 0.078125 2.109375 0.078125 Z M 2.109375 0.078125 "/></g></g></g></svg>